<?xml version="1.0" encoding="UTF-8"?>
<svg version="1.1" xmlns="http://www.w3.org/2000/svg" width="360" height="360">
<path d="M0 0 C118.8 0 237.6 0 360 0 C360 118.8 360 237.6 360 360 C241.2 360 122.4 360 0 360 C0 241.2 0 122.4 0 0 Z " fill="#79B258" transform="translate(0,0)"/>
<path d="M0 0 C118.8 0 237.6 0 360 0 C360 118.8 360 237.6 360 360 C241.2 360 122.4 360 0 360 C0 241.2 0 122.4 0 0 Z M147 11 C146.1234375 11.45117188 145.246875 11.90234375 144.34375 12.3671875 C131.07805223 20.02927156 121.35321396 31.76913341 114 45 C113.65630371 45.61713867 113.31260742 46.23427734 112.95849609 46.87011719 C106.07937352 59.45332686 97 76.47089665 97 91 C95.78699219 91.25007813 94.57398437 91.50015625 93.32421875 91.7578125 C87.06099987 93.15290803 80.94759515 95.00492567 74.8125 96.875 C73.66330078 97.21402344 72.51410156 97.55304688 71.33007812 97.90234375 C63.05183431 100.30167021 63.05183431 100.30167021 56 105 C53.82608623 110.15246122 53.28149096 115.44241825 52.625 120.9453125 C52.49975449 121.95012161 52.37450897 122.95493073 52.24546814 123.9901886 C51.97087283 126.19690581 51.69897539 128.40395997 51.42941284 130.61129761 C50.6758147 136.77767026 49.90122107 142.94141713 49.12890625 149.10546875 C49.04621553 149.76737024 48.96352482 150.42927174 48.87832832 151.11123085 C46.8607733 167.25776675 44.72503619 183.38845703 42.58865356 199.5196228 C39.26790846 224.59476474 35.98207103 249.67270095 32.88842773 274.77709961 C32.78230667 275.63793655 32.67618561 276.4987735 32.56684875 277.38569641 C32.36161023 279.05157194 32.15675282 280.71749448 31.95231628 282.38346863 C31.38171905 287.00785172 30.78830173 291.62859451 30.17529297 296.24755859 C30.03639145 297.29630661 29.89748993 298.34505463 29.75437927 299.42558289 C29.48401319 301.45878716 29.21138459 303.49169223 28.93617249 305.52424622 C28.75301735 306.9009272 28.75301735 306.9009272 28.56616211 308.30541992 C28.45678818 309.11637619 28.34741425 309.92733246 28.23472595 310.76286316 C27.93043355 313.28812426 27.93043355 313.28812426 28 317 C29.48487915 317.27880005 29.48487915 317.27880005 30.99975586 317.56323242 C35.64601055 318.43618593 40.29183635 319.31140696 44.9375 320.1875 C45.78088928 320.34650787 46.62427856 320.50551575 47.4932251 320.66934204 C58.66609157 322.7778588 69.8316782 324.91311158 80.96459961 327.2253418 C87.48249775 328.55903111 94.02606158 329.70843015 100.58203125 330.8359375 C113.51902999 333.06326308 126.41562981 335.49000768 139.3125 337.9375 C141.54098829 338.35886854 143.76950388 338.78009274 145.99804688 339.20117188 C164.02775083 342.61102219 182.05411429 346.04113029 200.05859375 349.58203125 C202.18481234 349.9926201 204.31110924 350.40280374 206.4375 350.8125 C207.51580078 351.02841797 208.59410156 351.24433594 209.70507812 351.46679688 C210.77048828 351.66982422 211.83589844 351.87285156 212.93359375 352.08203125 C213.84165771 352.25968018 214.74972168 352.4373291 215.68530273 352.62036133 C225.28049594 353.71931732 233.84118737 352.49856153 243.21484375 350.3671875 C244.46463516 350.09286896 245.71442657 349.81855042 247.00209045 349.53591919 C250.31600826 348.80849956 253.62675815 348.06758801 256.93695068 347.32342529 C260.20562842 346.59074764 263.476921 345.87010899 266.74804688 345.1484375 C271.93179552 344.00398988 277.11437856 342.85444855 282.29638672 341.70214844 C293.09161014 339.30860103 303.90541729 337.0023054 314.72024536 334.69927979 C320.48119056 333.47098286 326.24053819 332.23523193 332 331 C331.12612947 322.59956713 329.97473002 314.2393824 328.8125 305.875 C328.70462158 305.09633575 328.59674316 304.31767151 328.4855957 303.51541138 C326.65157474 290.30975912 324.66395413 277.13115221 322.61410522 263.95748901 C320.87780377 252.79378987 319.20322668 241.62463768 317.625 230.4375 C315.54085473 215.67823021 313.37629041 200.93160589 311.1875 186.1875 C311.01869324 185.04974121 310.84988647 183.91198242 310.67596436 182.73974609 C309.09432569 172.08062387 307.50982062 161.42192907 305.92236328 150.76367188 C304.86361638 143.6551398 303.80635383 136.54638807 302.75 129.4375 C302.58115295 128.30213806 302.41230591 127.16677612 302.23834229 125.99700928 C300.10162053 111.61810744 298.00279879 97.2362948 296.10253906 82.82397461 C295.89902832 81.2965564 295.89902832 81.2965564 295.69140625 79.73828125 C295.57998291 78.88274658 295.46855957 78.02721191 295.35375977 77.14575195 C295.02888345 74.82382671 295.02888345 74.82382671 294 72 C291.37935876 70.68967938 289.22172634 70.73663979 286.29296875 70.5703125 C285.14892578 70.49683594 284.00488281 70.42335937 282.82617188 70.34765625 C280.41253158 70.19996167 277.99845233 70.05926403 275.58398438 69.92578125 C274.43607422 69.84972656 273.28816406 69.77367187 272.10546875 69.6953125 C271.05512451 69.63359863 270.00478027 69.57188477 268.92260742 69.50830078 C263.57409992 68.57808671 260.41936537 65.66176308 256.78515625 61.8046875 C256.01623047 61.00675781 255.24730469 60.20882812 254.45507812 59.38671875 C252.85797263 57.71008392 251.26682222 56.02775655 249.68164062 54.33984375 C248.91142578 53.54449219 248.14121094 52.74914063 247.34765625 51.9296875 C246.65679932 51.19991699 245.96594238 50.47014648 245.25415039 49.71826172 C242.47398249 47.59903485 240.45675269 47.26024794 237 47 C233.99930232 47.50282743 233.99930232 47.50282743 231.125 48.4375 C230.15820312 48.72496094 229.19140625 49.01242188 228.1953125 49.30859375 C227.47085938 49.53675781 226.74640625 49.76492187 226 50 C225.45472656 48.88882813 224.90945312 47.77765625 224.34765625 46.6328125 C218.37179203 34.73593304 212.03682925 23.23777235 199.1875 17.8125 C196.45360112 17.11562381 194.34142239 16.92554091 191.5625 16.8125 C187.6264881 16.46851241 185.95856981 15.4185954 183.25 12.5625 C182.73953125 11.94503906 182.2290625 11.32757812 181.703125 10.69140625 C177.54770188 6.56457549 172.44113911 6.61079121 166.875 6.625 C159.56205539 6.6616505 153.58397137 7.60640982 147 11 Z " fill="#F3F4F3" transform="translate(0,0)"/>
<path d="M0 0 C3.7450251 0.45701208 4.91109464 1.96525922 7.49267578 4.67358398 C8.80171875 6.02033203 8.80171875 6.02033203 10.13720703 7.39428711 C11.03568359 8.34368164 11.93416016 9.29307617 12.85986328 10.27124023 C14.64972564 12.13875665 16.44380122 14.00224694 18.24267578 15.86108398 C19.03303223 16.69373779 19.82338867 17.5263916 20.63769531 18.38427734 C24.00734512 21.51660024 27.2182697 21.53250473 31.64501953 21.83374023 C32.799375 21.91624023 33.95373047 21.99874023 35.14306641 22.08374023 C37.58315239 22.25067289 40.02325664 22.41733872 42.46337891 22.58374023 C43.61644531 22.66624023 44.76951172 22.74874023 45.95751953 22.83374023 C47.01720947 22.90592773 48.07689941 22.97811523 49.16870117 23.05249023 C51.73486328 23.33374023 51.73486328 23.33374023 53.73486328 24.33374023 C54.30024719 26.39901733 54.30024719 26.39901733 54.73999023 29.11645508 C54.90544342 30.11763367 55.07089661 31.11881226 55.24136353 32.15032959 C55.40421844 33.2008551 55.56707336 34.25138062 55.73486328 35.33374023 C55.89070892 36.31449524 56.04655457 37.29525024 56.2071228 38.3057251 C56.70190127 41.47208876 57.17938731 44.64068084 57.65283203 47.81030273 C57.83076294 48.99338516 58.00869385 50.17646759 58.1920166 51.395401 C58.77082466 55.24954684 59.34679093 59.10410995 59.92236328 62.95874023 C60.1231205 64.29994571 60.32393677 65.64114234 60.52481079 66.98233032 C63.96031999 89.927555 67.2697406 112.88970259 70.52883911 135.86062622 C71.93044225 145.72976133 73.35626531 155.59529855 74.79736328 165.45874023 C74.91994507 166.29812134 75.04252686 167.13750244 75.16882324 168.00231934 C76.82304231 179.31097375 78.54356912 190.60805954 80.30310059 201.90075684 C82.86039249 218.31730276 85.245739 234.75436909 87.54736328 251.20874023 C87.77696243 252.84684158 87.77696243 252.84684158 88.01119995 254.51803589 C88.44825792 257.64124875 88.88311285 260.76475829 89.31689453 263.88842773 C89.5102388 265.27347755 89.5102388 265.27347755 89.70748901 266.68650818 C90.47253394 272.22793961 91.14008229 277.77139076 91.73486328 283.33374023 C90.92437531 283.50422379 90.11388733 283.67470734 89.27883911 283.85035706 C73.80955447 287.10826147 58.34847138 290.39895274 42.91069794 293.80338669 C40.66055086 294.29946583 38.41017776 294.79450644 36.159729 295.28921509 C34.65612666 295.61980622 33.15252558 295.95040314 31.64892578 296.28100586 C30.9071899 296.44408926 30.16545403 296.60717266 29.4012413 296.77519798 C25.57679491 297.61660211 21.75299114 298.46078464 17.93017578 299.30957031 C14.1263574 300.15391741 10.32102848 300.99112212 6.51459122 301.82357979 C5.09075659 302.13632651 3.66748582 302.45165324 2.24483871 302.76975822 C0.27800846 303.20923663 -1.69103875 303.63875713 -3.66015625 304.06787109 C-4.7708548 304.31323105 -5.88155334 304.558591 -7.02590942 304.81138611 C-10.49084129 305.3701371 -13.76111585 305.36843153 -17.26513672 305.33374023 C-17.34817858 293.593621 -17.13826693 281.90951091 -16.59423828 270.18261719 C-16.52149076 268.54920305 -16.44910144 266.91577294 -16.37703514 265.28232861 C-16.22216111 261.78935143 -16.06479239 258.29649935 -15.90538406 254.8037262 C-15.6495867 249.19887664 -15.39949969 243.5937801 -15.1499939 237.98864746 C-14.74800078 228.97301797 -14.34212047 219.95756807 -13.93475688 210.9421798 C-13.14330424 193.42195468 -12.3603911 175.90134513 -11.57733536 158.38074303 C-11.39528653 154.30761453 -11.21300824 150.23449641 -11.03054428 146.16138649 C-9.94715971 121.97053749 -8.88951733 97.779181 -7.91357422 73.58374023 C-7.82017602 71.28167109 -7.72675228 68.97960299 -7.63330078 66.67753601 C-7.26723648 57.63472862 -6.90554271 48.59182575 -6.56251335 39.54811287 C-6.42905366 36.06709795 -6.28950007 32.58634668 -6.1483345 29.1056366 C-6.08723162 27.56249716 -6.02891832 26.01924379 -5.9738884 24.47587585 C-5.12768361 0.75550156 -5.12768361 0.75550156 0 0 Z " fill="#4B8229" transform="translate(240.26513671875,47.666259765625)"/>
<path d="M0 0 C-2.25260488 8.90016837 -5.15743774 17.53125337 -8.1875 26.1875 C-8.65593369 27.53438884 -9.12403477 28.88139341 -9.59179688 30.22851562 C-10.72404362 33.48701658 -11.86074686 36.74394102 -13 40 C-13.72445312 39.72285156 -14.44890625 39.44570312 -15.1953125 39.16015625 C-23.27099789 36.13446613 -30.29201769 34.79496639 -38.875 34.6875 C-39.63941406 34.65849609 -40.40382813 34.62949219 -41.19140625 34.59960938 C-46.9344676 34.53623094 -51.23120242 35.73649745 -56 39 C-59.05224215 42.35535165 -60.34766558 46.47977131 -60.1875 51 C-58.38561733 59.32251971 -49.9980635 64.88222735 -43.5 69.625 C-30.34489752 79.36777715 -17.45641221 90.31652429 -14.390625 107.39453125 C-12.50142971 124.83180381 -14.97006573 140.29735791 -25.84765625 154.39453125 C-33.90358452 164.05203572 -43.83167139 170.07812429 -56.50976562 171.22753906 C-77.99612797 172.45203068 -96.11380271 167.01986946 -112.65625 153.0546875 C-114 151 -114 151 -113.68579102 148.23632812 C-113.03386094 145.15979375 -112.26267504 142.17922833 -111.37109375 139.1640625 C-111.05849609 138.10058594 -110.74589844 137.03710938 -110.42382812 135.94140625 C-109.9355957 134.29978516 -109.9355957 134.29978516 -109.4375 132.625 C-109.10814453 131.50738281 -108.77878906 130.38976562 -108.43945312 129.23828125 C-107.62943005 126.49124647 -106.8161861 123.74520871 -106 121 C-102.25302939 122.44054194 -99.19286743 124.10696525 -95.875 126.375 C-86.8812446 132.1420801 -77.85455951 135.72615488 -67 134 C-64.13377515 132.55273837 -62.41610841 131.65388464 -60.6875 128.9375 C-59.33569059 123.16158706 -58.78947808 117.41124964 -61.75 112.0625 C-66.42214434 105.48688944 -73.17156754 100.21407252 -79.3125 95.05859375 C-89.0354826 86.87381739 -94.9857493 77.71258224 -97 65 C-98.10448151 46.79729514 -93.30060804 30.09031572 -81.375 16.0625 C-62.15463101 -3.48114736 -25.36248914 -13.51968837 0 0 Z " fill="#EFEFEE" transform="translate(189,130)"/>
<path d="M0 0 C0.76248047 0.04382813 1.52496094 0.08765625 2.31054688 0.1328125 C7.91693579 0.4897179 7.91693579 0.4897179 10.1875 1.625 C10.75288391 3.6902771 10.75288391 3.6902771 11.19262695 6.40771484 C11.35808014 7.40889343 11.52353333 8.41007202 11.69400024 9.44158936 C11.85685516 10.49211487 12.01971008 11.54264038 12.1875 12.625 C12.34334564 13.605755 12.49919128 14.58651001 12.65975952 15.59698486 C13.15453799 18.76334853 13.63202403 21.9319406 14.10546875 25.1015625 C14.28339966 26.28464493 14.46133057 27.46772736 14.64465332 28.68666077 C15.22346138 32.5408066 15.79942764 36.39536971 16.375 40.25 C16.57575722 41.59120547 16.77657349 42.9324021 16.97744751 44.27359009 C20.4129567 67.21881477 23.72237731 90.18096235 26.98147583 113.15188599 C28.38307897 123.02102109 29.80890203 132.88655831 31.25 142.75 C31.37258179 143.5893811 31.49516357 144.42876221 31.62145996 145.2935791 C33.27567903 156.60223352 34.99620584 167.8993193 36.7557373 179.1920166 C39.3130292 195.60856252 41.69837572 212.04562886 44 228.5 C44.1530661 229.59206757 44.3061322 230.68413513 44.46383667 231.80929565 C44.90089464 234.93250852 45.33574956 238.05601806 45.76953125 241.1796875 C45.89842743 242.10305405 46.02732361 243.02642059 46.16012573 243.97776794 C46.92517065 249.51919937 47.59271901 255.06265052 48.1875 260.625 C43.78131262 261.56957061 39.37454726 262.51138777 34.96728516 263.45092773 C33.47592243 263.76922779 31.98470522 264.08821061 30.49365234 264.40795898 C20.08546944 266.63928786 9.65920221 268.71340033 -0.8125 270.625 C-2.85412308 266.37540702 -3.20190814 262.39516744 -3.375 257.7578125 C-3.41109375 256.98349884 -3.4471875 256.20918518 -3.484375 255.41140747 C-3.6017183 252.85789457 -3.70695492 250.30402537 -3.8125 247.75 C-3.8935617 245.95015138 -3.97560858 244.15034689 -4.05859375 242.35058594 C-4.2300004 238.62026198 -4.39757702 234.88979569 -4.5625 231.15917969 C-4.90289811 223.53446137 -5.29266534 215.91237704 -5.6875 208.29031372 C-5.81343571 205.85691973 -5.93806648 203.42346146 -6.0625 200.98999023 C-6.65075847 189.52677725 -7.2880496 178.06669358 -7.9375 166.60681152 C-8.68404055 153.3885237 -9.32151212 140.16625573 -9.9375 126.9413147 C-10.50457526 114.79059205 -11.1224586 102.64435714 -11.8125 90.5 C-12.78298733 73.41268718 -13.65177509 56.32107834 -14.48803711 39.22669983 C-14.70675393 34.75761953 -14.93063134 30.28885413 -15.16015625 25.8203125 C-15.5866322 17.41731476 -15.98992075 9.04262913 -15.8125 0.625 C-10.41141293 -0.33360353 -5.46199708 -0.37897638 0 0 Z " fill="#55922C" transform="translate(283.8125,70.375)"/>
<path d="M0 0 C0.72896484 -0.01611328 1.45792969 -0.03222656 2.20898438 -0.04882812 C7.01184867 -0.05315114 10.27924374 0.67585751 14.4375 3.3125 C15.9140625 4.84765625 15.9140625 4.84765625 17.0625 6.375 C20.59784888 10.16154472 24.52724574 10.20828217 29.4765625 10.84375 C37.63686595 12.13561862 43.38919224 16.96800511 48.4375 23.3125 C52.88667251 29.89513592 56.48858262 36.58573158 58.4375 44.3125 C57.19329353 44.8470256 55.94179064 45.36458611 54.6875 45.875 C53.64335937 46.31005859 53.64335937 46.31005859 52.578125 46.75390625 C50.03716066 47.41696811 48.81932105 47.43039487 46.4375 46.3125 C45.41796875 44.37890625 45.41796875 44.37890625 44.625 41.875 C41.89425116 34.46903914 38.29389084 27.35380973 31 23.6875 C29.2365625 23.006875 29.2365625 23.006875 27.4375 22.3125 C27.6540625 22.87453125 27.870625 23.4365625 28.09375 24.015625 C31.28369772 33.64454126 30.70223607 43.30155465 30.4375 53.3125 C26.8075 54.3025 23.1775 55.2925 19.4375 56.3125 C19.27314453 54.21261719 19.27314453 54.21261719 19.10546875 52.0703125 C18.94586837 50.192661 18.78568062 48.31505937 18.625 46.4375 C18.55474609 45.5196875 18.48449219 44.601875 18.41210938 43.65625 C17.84643732 37.23021541 16.5247862 31.41430845 14.4375 25.3125 C2.64970932 31.67790696 -3.68036439 39.88356546 -9.3125 51.9375 C-9.61583252 52.58485107 -9.91916504 53.23220215 -10.23168945 53.89916992 C-11.7542004 57.24117332 -12.87325912 60.42935351 -13.6875 64 C-16.07465661 68.21731001 -17.71377773 68.38850789 -22.25 69.8125 C-24.3464186 70.34405095 -26.44886047 70.854193 -28.5625 71.3125 C-26.41209831 51.73642941 -17.66760721 32.1287015 -2.28125 19.4296875 C-0.93480849 18.41985637 0.42651259 17.4292266 1.80859375 16.46875 C3.58649087 15.27505131 3.58649087 15.27505131 5.4375 13.3125 C-5.38570726 12.17983878 -12.54796193 14.53003229 -21.5625 20.3125 C-22.90847071 21.63307503 -24.2456906 22.96284502 -25.5625 24.3125 C-26.2225 24.3125 -26.8825 24.3125 -27.5625 24.3125 C-27.8203125 24.88871094 -28.078125 25.46492188 -28.34375 26.05859375 C-29.66862508 28.50876338 -31.21657254 30.29076634 -33.0625 32.375 C-42.45366471 44.02889099 -48.37443765 57.90643137 -52.5234375 72.19042969 C-54.5984496 78.67248454 -54.5984496 78.67248454 -57.46191406 80.57348633 C-59.50395008 81.36283887 -61.41415111 81.90401868 -63.5625 82.3125 C-64.7175 82.539375 -65.8725 82.76625 -67.0625 83 C-67.8875 83.103125 -68.7125 83.20625 -69.5625 83.3125 C-66.01434794 59.2639138 -53.18926363 34.74813321 -36.5625 17.3125 C-35.75232422 16.37277344 -35.75232422 16.37277344 -34.92578125 15.4140625 C-31.33001383 11.41071439 -27.19730637 8.68474821 -22.5625 6 C-21.98089111 5.66210449 -21.39928223 5.32420898 -20.80004883 4.97607422 C-13.94848954 1.17339624 -7.69288874 -0.03419062 0 0 Z " fill="#4C822B" transform="translate(166.5625,6.6875)"/>
<path d="M0 0 C0.495 0.99 0.495 0.99 1 2 C-2.17640867 5.59072285 -5.8422446 7.93245534 -9.87890625 10.4375 C-12.09764189 12.07192773 -13.36875824 13.80609804 -15 16 C-15.66 16 -16.32 16 -17 16 C-17.27384521 16.56460938 -17.54769043 17.12921875 -17.82983398 17.7109375 C-19.99839041 21.95303744 -22.54312819 25.9597703 -25.0625 30 C-25.59810547 30.90234375 -26.13371094 31.8046875 -26.68554688 32.734375 C-29.58903782 37.34720668 -31.49923147 40.17762405 -36.765625 41.9453125 C-39.61102277 42.99293486 -40.70211048 43.41077386 -42.08764648 46.15136719 C-42.82534663 49.05514306 -43.28915724 51.90543153 -43.6875 54.875 C-44.06603149 57.15001922 -44.44631432 59.42474757 -44.828125 61.69921875 C-45.01568359 62.89466309 -45.20324219 64.09010742 -45.39648438 65.32177734 C-46.40652772 71.47764833 -47.68545373 77.57712432 -48.9375 83.6875 C-49.38542693 85.92031005 -49.83198468 88.1533951 -50.27734375 90.38671875 C-50.66019531 92.30049316 -50.66019531 92.30049316 -51.05078125 94.25292969 C-51.79363416 97.96698961 -52.53554214 101.68123778 -53.27734375 105.39550781 C-56.75571996 122.8072691 -60.2432815 140.21717708 -63.76098919 157.62103939 C-64.52485684 161.4005926 -65.28725123 165.18043072 -66.04638672 168.9609375 C-66.80216127 172.72448089 -67.56164156 176.48725996 -68.32357407 180.24956131 C-68.60624082 181.64836852 -68.8876893 183.04742265 -69.16772842 184.44675827 C-71.15674171 194.37952366 -73.47159165 204.19388805 -76 214 C-77.28389897 209.66584056 -76.63049738 205.82059543 -75.99609375 201.41796875 C-75.81895088 200.12227966 -75.81895088 200.12227966 -75.63822937 198.80041504 C-75.38049232 196.92064405 -75.11936866 195.04133504 -74.85528564 193.16244507 C-74.28276064 189.08564044 -73.7276477 185.00651976 -73.17156982 180.92744446 C-72.88041543 178.79231567 -72.58845143 176.65729715 -72.29571533 174.52238464 C-70.84358979 163.91852729 -69.47395941 153.30490394 -68.125 142.6875 C-68.00543945 141.74985809 -67.88587891 140.81221619 -67.76269531 139.84616089 C-66.06755859 126.55161835 -64.40804877 113.25275865 -62.76169014 99.95210075 C-61.16077489 87.02039441 -59.53903349 74.09141303 -57.90332031 61.1640625 C-57.34029324 56.71184945 -56.78392056 52.25894425 -56.23730469 47.8046875 C-55.71119136 43.52233648 -55.16608057 39.24299629 -54.60037231 34.96569824 C-54.41124928 33.51005438 -54.22959645 32.05341674 -54.05612183 30.5958252 C-53.82468296 28.66030094 -53.56369808 26.72837515 -53.30078125 24.796875 C-53.16841064 23.75885742 -53.03604004 22.72083984 -52.8996582 21.65136719 C-51.7178698 18.16853895 -50.03264829 16.99591102 -47 15 C-44.00390625 13.76171875 -44.00390625 13.76171875 -40.5625 12.6875 C-39.92997314 12.48656738 -39.29744629 12.28563477 -38.64575195 12.07861328 C-37.22847722 11.62942605 -35.80967684 11.18503345 -34.38964844 10.74462891 C-31.74713105 9.92120451 -29.11168706 9.0772463 -26.4765625 8.23046875 C-17.67399728 5.40692056 -8.86265333 2.62977532 0 0 Z " fill="#94C576" transform="translate(107,87)"/>
<path d="M0 0 C0 0.99 0 1.98 0 3 C-1.72265625 4.359375 -1.72265625 4.359375 -4.0625 5.75 C-17.25937289 14.22486681 -25.12207882 28.31963211 -30 43 C-30.17216106 44.38289523 -30.30936639 45.77052415 -30.4140625 47.16015625 C-31.2241312 55.62923397 -31.2241312 55.62923397 -34 59 C-41.55241113 63.52935666 -52.14029285 67 -61 67 C-59.79793221 60.64755575 -57.98753369 54.87284812 -55.4375 48.9375 C-55.08743896 48.11894531 -54.73737793 47.30039063 -54.37670898 46.45703125 C-46.12466666 27.58269854 -35.45493162 8.90478035 -15.48046875 0.609375 C-10.40136552 -0.63840469 -5.18636228 -0.28857657 0 0 Z " fill="#F3F4F1" transform="translate(172,19)"/>
<path d="M0 0 C2 1 2 1 2.82739258 2.89404297 C4.80079073 9.36137499 5.52176241 15.38184768 5.6875 22.125 C5.72166016 23.08148438 5.75582031 24.03796875 5.79101562 25.0234375 C5.87240474 27.34884073 5.94189612 29.67391876 6 32 C-1.05688168 34.76860333 -8.24932233 36.98440948 -15.5 39.1875 C-16.70398438 39.55552734 -17.90796875 39.92355469 -19.1484375 40.30273438 C-22.09827932 41.20407493 -25.04880572 42.10309966 -28 43 C-27.50730581 36.90290939 -26.15496269 32.18065699 -23.5 26.6875 C-23.14470215 25.94838379 -22.7894043 25.20926758 -22.42333984 24.44775391 C-17.0989058 13.78261735 -10.17612676 6.22464539 0 0 Z " fill="#EEEFEC" transform="translate(180,31)"/>
<path d="M0 0 C0.33 0 0.66 0 1 0 C1.06316406 0.556875 1.12632812 1.11375 1.19140625 1.6875 C2.8591016 12.07987524 10.37637774 17.69577302 18.5 23.625 C31.13498054 32.98257056 41.89536091 42.49435918 47 58 C47.33640152 60.51208928 47.2816521 62.46513108 47 65 C44.03 64.67 41.06 64.34 38 64 C38 59.05 38 54.1 38 49 C33.05 49 28.1 49 23 49 C23 44.05 23 39.1 23 34 C18.05 34 13.1 34 8 34 C8 29.05 8 24.1 8 19 C3.05 19 -1.9 19 -7 19 C-7 14.05 -7 9.1 -7 4 C-4.69 4 -2.38 4 0 4 C0 2.68 0 1.36 0 0 Z " fill="#FDFDFD" transform="translate(127,176)"/>
<path d="M0 0 C4.95 0 9.9 0 15 0 C16.32823291 12.95355856 16.28151287 22.93841352 11 35 C10.41476563 34.74605469 9.82953125 34.49210937 9.2265625 34.23046875 C0.38010077 30.68391427 -8.6246518 29.3614367 -18 28 C-17.01 27.67 -16.02 27.34 -15 27 C-15 23.04 -15 19.08 -15 15 C-10.05 15 -5.1 15 0 15 C0 10.05 0 5.1 0 0 Z " fill="#EEEFED" transform="translate(165,135)"/>
<path d="M0 0 C0 0.99 0 1.98 0 3 C-1.72265625 4.359375 -1.72265625 4.359375 -4.0625 5.75 C-11.37480882 10.41474873 -16.18757044 15.823744 -20.73828125 23.1796875 C-22 25 -22 25 -24 26 C-28.33603979 26.1393329 -32.66080671 26.04254111 -37 26 C-37 30.95 -37 35.9 -37 41 C-41.29 41 -45.58 41 -50 41 C-50.33 40.34 -50.66 39.68 -51 39 C-49.79295825 36.43124531 -48.53290852 34.01916245 -47.125 31.5625 C-46.7129834 30.84255859 -46.3009668 30.12261719 -45.87646484 29.38085938 C-38.55156252 16.87805693 -29.1484454 6.28569317 -15.48046875 0.609375 C-10.40136552 -0.63840469 -5.18636228 -0.28857657 0 0 Z " fill="#EEEFED" transform="translate(172,19)"/>
<path d="M0 0 C4.95 0 9.9 0 15 0 C15.43269231 5.97115385 15.43269231 5.97115385 15 9 C12.8125 10.8125 12.8125 10.8125 10 12 C-0.33287257 19.88561328 -10.07956252 28.60157536 -16.375 40.0625 C-19.21583983 44.79503596 -19.21583983 44.79503596 -22.66015625 45.6953125 C-25.4375 45.6875 -25.4375 45.6875 -30 45 C-30 40.05 -30 35.1 -30 30 C-25.05 30 -20.1 30 -15 30 C-15 25.05 -15 20.1 -15 15 C-10.05 15 -5.1 15 0 15 C0 10.05 0 5.1 0 0 Z " fill="#EEEFED" transform="translate(135,0)"/>
<path d="M0 0 C4.95 0 9.9 0 15 0 C17.02062228 9.27109045 17.02062228 9.27109045 14.37890625 13.74609375 C7.63719039 21.42253625 -0.1783537 27.10180929 -10 30 C-11.98 30 -13.96 30 -16 30 C-15.67 25.05 -15.34 20.1 -15 15 C-10.05 15 -5.1 15 0 15 C0 10.05 0 5.1 0 0 Z " fill="#FEFEFE" transform="translate(150,270)"/>
<path d="M0 0 C4.95 0 9.9 0 15 0 C14.90234375 3.05989583 14.8046875 6.11979167 14.70703125 9.1796875 C14.80371094 10.11039063 14.90039062 11.04109375 15 12 C15.99 12.66 16.98 13.32 18 14 C16.83984375 14.03867188 16.83984375 14.03867188 15.65625 14.078125 C6.16046727 14.55522744 6.16046727 14.55522744 -2 19 C-3.33281226 20.97926612 -4.30515915 22.8924669 -5.2109375 25.09765625 C-6 27 -6 27 -8 30 C-10.31 30 -12.62 30 -15 30 C-15 25.05 -15 20.1 -15 15 C-10.05 15 -5.1 15 0 15 C0 10.05 0 5.1 0 0 Z " fill="#EEEFED" transform="translate(135,150)"/>
<path d="M0 0 C6.83186529 1.90656706 10.67130726 4.84027711 14.234375 11.03515625 C14.56953125 11.64230469 14.9046875 12.24945313 15.25 12.875 C15.600625 13.47441406 15.95125 14.07382812 16.3125 14.69140625 C18.43036084 18.44653643 19.55456105 21.71592537 20 26 C17.89748139 26.67184618 15.79292237 27.33730968 13.6875 28 C11.92986328 28.556875 11.92986328 28.556875 10.13671875 29.125 C7 30 7 30 4 30 C3.91435791 29.30438965 3.82871582 28.6087793 3.74047852 27.89208984 C3.34913151 24.71956307 2.95583358 21.54728106 2.5625 18.375 C2.42779297 17.28058594 2.29308594 16.18617187 2.15429688 15.05859375 C2.02216797 13.99511719 1.89003906 12.93164062 1.75390625 11.8359375 C1.63345947 10.86188965 1.5130127 9.8878418 1.38891602 8.88427734 C0.98794008 5.91056125 0.50819427 2.95711535 0 0 Z " fill="#FCFDFC" transform="translate(194,29)"/>
<path d="M0 0 C6.68002472 -0.36366897 12.86012494 0.9928215 19.375 2.375 C20.47972656 2.59671875 21.58445313 2.8184375 22.72265625 3.046875 C24.29466797 3.37558594 24.29466797 3.37558594 25.8984375 3.7109375 C26.85411621 3.90993652 27.80979492 4.10893555 28.79443359 4.31396484 C29.52227051 4.54035645 30.25010742 4.76674805 31 5 C33.10659067 9.21318133 31.39452679 15.52869644 31 20 C26.05 20 21.1 20 16 20 C16 15.05 16 10.1 16 5 C11.05 5 6.1 5 1 5 C0.67 3.35 0.34 1.7 0 0 Z " fill="#FDFDFD" transform="translate(149,340)"/>
<path d="M0 0 C5.56786523 -0.13686373 10.61140596 0.27526425 16.0625 1.375 C16.73087891 1.50132812 17.39925781 1.62765625 18.08789062 1.7578125 C22.47758659 2.61100899 26.72132462 3.72029215 31 5 C31 9.62 31 14.24 31 19 C26.05 19 21.1 19 16 19 C16 14.05 16 9.1 16 4 C11.05 4 6.1 4 1 4 C0.67 2.68 0.34 1.36 0 0 Z " fill="#FCFDFC" transform="translate(74,326)"/>
<path d="M0 0 C4.95 0 9.9 0 15 0 C15 4.95 15 9.9 15 15 C19.29 15 23.58 15 28 15 C28 15.33 28 15.66 28 16 C24.85434954 16.08845016 21.70902625 16.14086835 18.5625 16.1875 C17.68400391 16.21263672 16.80550781 16.23777344 15.90039062 16.26367188 C9.63093116 16.33307549 4.84993487 15.26737048 -1 13 C-0.67 8.71 -0.34 4.42 0 0 Z " fill="#FDFDFC" transform="translate(105,285)"/>
<path d="M0 0 C4.95 0 9.9 0 15 0 C15 4.95 15 9.9 15 15 C9.06 15.495 9.06 15.495 3 16 C4.98 17.98 6.96 19.96 9 22 C8.67 22.66 8.34 23.32 8 24 C4.35181978 21.37587037 1.44860966 18.79139561 -1 15 C-1.52047758 9.53498541 -0.8537182 5.57427764 0 0 Z " fill="#FEFEFE" transform="translate(255,45)"/>
<path d="M0 0 C4.95 0 9.9 0 15 0 C15 4.95 15 9.9 15 15 C10.38 15 5.76 15 1 15 C1 16.65 1 18.3 1 20 C-2.85577028 14.21634458 -0.96148196 6.61018848 0 0 Z " fill="#FEFEFE" transform="translate(315,195)"/>
<path d="M0 0 C0.33 0.66 0.66 1.32 1 2 C5.29 2 9.58 2 14 2 C14 6.95 14 11.9 14 17 C9.05 17 4.1 17 -1 17 C-1.1953125 14.16796875 -1.390625 11.3359375 -1.5859375 8.50390625 C-1.72257813 7.67761719 -1.85921875 6.85132813 -2 6 C-2.66 5.67 -3.32 5.34 -4 5 C-2.68 3.35 -1.36 1.7 0 0 Z " fill="#FEFEFE" transform="translate(166,43)"/>
<path d="M0 0 C6.93 0.495 6.93 0.495 14 1 C14 5.95 14 10.9 14 16 C9.05 16 4.1 16 -1 16 C-2.25 3.375 -2.25 3.375 0 0 Z " fill="#FEFEFE" transform="translate(121,59)"/>
<path d="M0 0 C0.33 0 0.66 0 1 0 C1 1.65 1 3.3 1 5 C4.96 5 8.92 5 13 5 C13 9.95 13 14.9 13 20 C8.05 20 3.1 20 -2 20 C-2 15.38 -2 10.76 -2 6 C-1.34 6 -0.68 6 0 6 C0 4.02 0 2.04 0 0 Z " fill="#FFFFFF" transform="translate(332,325)"/>
<path d="M0 0 C4.95 0 9.9 0 15 0 C15 5.28 15 10.56 15 16 C10.05 15.67 5.1 15.34 0 15 C0 10.05 0 5.1 0 0 Z " fill="#EEEEED" transform="translate(120,285)"/>
<path d="M0 0 C4.95 0 9.9 0 15 0 C15 4.95 15 9.9 15 15 C10.05 15 5.1 15 0 15 C0 10.05 0 5.1 0 0 Z " fill="#FFFFFF" transform="translate(345,345)"/>
<path d="M0 0 C4.95 0 9.9 0 15 0 C15 4.95 15 9.9 15 15 C10.05 15 5.1 15 0 15 C0 10.05 0 5.1 0 0 Z " fill="#EFEFEE" transform="translate(330,345)"/>
<path d="M0 0 C4.95 0 9.9 0 15 0 C15 4.95 15 9.9 15 15 C10.05 15 5.1 15 0 15 C0 10.05 0 5.1 0 0 Z " fill="#FFFFFF" transform="translate(315,345)"/>
<path d="M0 0 C4.95 0 9.9 0 15 0 C15 4.95 15 9.9 15 15 C10.05 15 5.1 15 0 15 C0 10.05 0 5.1 0 0 Z " fill="#EFEFEE" transform="translate(300,345)"/>
<path d="M0 0 C4.95 0 9.9 0 15 0 C15 4.95 15 9.9 15 15 C10.05 15 5.1 15 0 15 C0 10.05 0 5.1 0 0 Z " fill="#FFFFFF" transform="translate(285,345)"/>
<path d="M0 0 C4.95 0 9.9 0 15 0 C15 4.95 15 9.9 15 15 C10.05 15 5.1 15 0 15 C0 10.05 0 5.1 0 0 Z " fill="#EFEFEE" transform="translate(150,345)"/>
<path d="M0 0 C4.95 0 9.9 0 15 0 C15 4.95 15 9.9 15 15 C10.05 15 5.1 15 0 15 C0 10.05 0 5.1 0 0 Z " fill="#FFFFFF" transform="translate(135,345)"/>
<path d="M0 0 C4.95 0 9.9 0 15 0 C15 4.95 15 9.9 15 15 C10.05 15 5.1 15 0 15 C0 10.05 0 5.1 0 0 Z " fill="#FFFFFF" transform="translate(105,345)"/>
<path d="M0 0 C4.95 0 9.9 0 15 0 C15 4.95 15 9.9 15 15 C10.05 15 5.1 15 0 15 C0 10.05 0 5.1 0 0 Z " fill="#EFEFEE" transform="translate(90,345)"/>
<path d="M0 0 C4.95 0 9.9 0 15 0 C15 4.95 15 9.9 15 15 C10.05 15 5.1 15 0 15 C0 10.05 0 5.1 0 0 Z " fill="#FFFFFF" transform="translate(75,345)"/>
<path d="M0 0 C4.95 0 9.9 0 15 0 C15 4.95 15 9.9 15 15 C10.05 15 5.1 15 0 15 C0 10.05 0 5.1 0 0 Z " fill="#FFFFFF" transform="translate(45,345)"/>
<path d="M0 0 C4.95 0 9.9 0 15 0 C15 4.95 15 9.9 15 15 C10.05 15 5.1 15 0 15 C0 10.05 0 5.1 0 0 Z " fill="#EFEFEE" transform="translate(30,345)"/>
<path d="M0 0 C4.95 0 9.9 0 15 0 C15 4.95 15 9.9 15 15 C10.05 15 5.1 15 0 15 C0 10.05 0 5.1 0 0 Z " fill="#FFFFFF" transform="translate(15,345)"/>
<path d="M0 0 C4.95 0 9.9 0 15 0 C15 4.95 15 9.9 15 15 C10.05 15 5.1 15 0 15 C0 10.05 0 5.1 0 0 Z " fill="#EFEFEE" transform="translate(0,345)"/>
<path d="M0 0 C4.95 0 9.9 0 15 0 C15 4.95 15 9.9 15 15 C10.05 15 5.1 15 0 15 C0 10.05 0 5.1 0 0 Z " fill="#EFEFEE" transform="translate(345,330)"/>
<path d="M0 0 C4.95 0 9.9 0 15 0 C15 4.95 15 9.9 15 15 C10.05 15 5.1 15 0 15 C0 10.05 0 5.1 0 0 Z " fill="#EFEFEE" transform="translate(75,330)"/>
<path d="M0 0 C4.95 0 9.9 0 15 0 C15 4.95 15 9.9 15 15 C10.05 15 5.1 15 0 15 C0 10.05 0 5.1 0 0 Z " fill="#FFFFFF" transform="translate(60,330)"/>
<path d="M0 0 C4.95 0 9.9 0 15 0 C15 4.95 15 9.9 15 15 C10.05 15 5.1 15 0 15 C0 10.05 0 5.1 0 0 Z " fill="#FFFFFF" transform="translate(30,330)"/>
<path d="M0 0 C4.95 0 9.9 0 15 0 C15 4.95 15 9.9 15 15 C10.05 15 5.1 15 0 15 C0 10.05 0 5.1 0 0 Z " fill="#EFEFEE" transform="translate(15,330)"/>
<path d="M0 0 C4.95 0 9.9 0 15 0 C15 4.95 15 9.9 15 15 C10.05 15 5.1 15 0 15 C0 10.05 0 5.1 0 0 Z " fill="#FFFFFF" transform="translate(0,330)"/>
<path d="M0 0 C4.95 0 9.9 0 15 0 C15 4.95 15 9.9 15 15 C10.05 15 5.1 15 0 15 C0 10.05 0 5.1 0 0 Z " fill="#FFFFFF" transform="translate(345,315)"/>
<path d="M0 0 C0.33 0 0.66 0 1 0 C1 1.98 1 3.96 1 6 C1.66 6 2.32 6 3 6 C3 10.29 3 14.58 3 19 C-1.95 19 -6.9 19 -12 19 C-12 14.05 -12 9.1 -12 4 C-8.04 4 -4.08 4 0 4 C0 2.68 0 1.36 0 0 Z " fill="#FFFFFF" transform="translate(27,311)"/>
<path d="M0 0 C4.95 0 9.9 0 15 0 C15 4.95 15 9.9 15 15 C10.05 15 5.1 15 0 15 C0 10.05 0 5.1 0 0 Z " fill="#EFEFEE" transform="translate(345,300)"/>
<path d="M0 0 C4.95 0 9.9 0 15 0 C15 4.95 15 9.9 15 15 C10.05 15 5.1 15 0 15 C0 10.05 0 5.1 0 0 Z " fill="#FFFFFF" transform="translate(0,300)"/>
<path d="M0 0 C4.95 0 9.9 0 15 0 C15 4.95 15 9.9 15 15 C10.05 15 5.1 15 0 15 C0 10.05 0 5.1 0 0 Z " fill="#FFFFFF" transform="translate(345,285)"/>
<path d="M0 0 C4.95 0 9.9 0 15 0 C15 4.95 15 9.9 15 15 C10.05 15 5.1 15 0 15 C0 10.05 0 5.1 0 0 Z " fill="#EFEFEE" transform="translate(330,285)"/>
<path d="M0 0 C4.95 0 9.9 0 15 0 C15 4.95 15 9.9 15 15 C10.05 15 5.1 15 0 15 C0 10.05 0 5.1 0 0 Z " fill="#EFEFEE" transform="translate(345,270)"/>
<path d="M0 0 C4.95 0 9.9 0 15 0 C15 4.95 15 9.9 15 15 C10.05 15 5.1 15 0 15 C0 10.05 0 5.1 0 0 Z " fill="#FFFFFF" transform="translate(330,270)"/>
<path d="M0 0 C4.95 0 9.9 0 15 0 C15 4.95 15 9.9 15 15 C10.05 15 5.1 15 0 15 C0 10.05 0 5.1 0 0 Z " fill="#FFFFFF" transform="translate(120,270)"/>
<path d="M0 0 C4.95 0 9.9 0 15 0 C15 4.95 15 9.9 15 15 C10.05 15 5.1 15 0 15 C0 10.05 0 5.1 0 0 Z " fill="#FFFFFF" transform="translate(90,270)"/>
<path d="M0 0 C4.95 0 9.9 0 15 0 C15 4.95 15 9.9 15 15 C10.05 15 5.1 15 0 15 C0 10.05 0 5.1 0 0 Z " fill="#FFFFFF" transform="translate(0,270)"/>
<path d="M0 0 C4.95 0 9.9 0 15 0 C15 4.95 15 9.9 15 15 C10.05 15 5.1 15 0 15 C0 10.05 0 5.1 0 0 Z " fill="#FFFFFF" transform="translate(345,255)"/>
<path d="M0 0 C4.95 0 9.9 0 15 0 C15 4.95 15 9.9 15 15 C10.05 15 5.1 15 0 15 C0 10.05 0 5.1 0 0 Z " fill="#FFFFFF" transform="translate(135,255)"/>
<path d="M0 0 C4.95 0 9.9 0 15 0 C15 4.95 15 9.9 15 15 C10.05 15 5.1 15 0 15 C0 10.05 0 5.1 0 0 Z " fill="#FFFFFF" transform="translate(15,255)"/>
<path d="M0 0 C4.95 0 9.9 0 15 0 C15 4.95 15 9.9 15 15 C10.05 15 5.1 15 0 15 C0 10.05 0 5.1 0 0 Z " fill="#EFEFEE" transform="translate(0,255)"/>
<path d="M0 0 C4.95 0 9.9 0 15 0 C15 4.95 15 9.9 15 15 C10.05 15 5.1 15 0 15 C0 10.05 0 5.1 0 0 Z " fill="#EFEFEE" transform="translate(345,240)"/>
<path d="M0 0 C4.95 0 9.9 0 15 0 C15 4.95 15 9.9 15 15 C10.05 15 5.1 15 0 15 C0 10.05 0 5.1 0 0 Z " fill="#FFFFFF" transform="translate(330,240)"/>
<path d="M0 0 C4.95 0 9.9 0 15 0 C15 4.95 15 9.9 15 15 C10.05 15 5.1 15 0 15 C0 10.05 0 5.1 0 0 Z " fill="#FFFFFF" transform="translate(150,240)"/>
<path d="M0 0 C4.95 0 9.9 0 15 0 C15 4.95 15 9.9 15 15 C10.05 15 5.1 15 0 15 C0 10.05 0 5.1 0 0 Z " fill="#EFEFEE" transform="translate(15,240)"/>
<path d="M0 0 C4.95 0 9.9 0 15 0 C15 4.95 15 9.9 15 15 C10.05 15 5.1 15 0 15 C0 10.05 0 5.1 0 0 Z " fill="#FFFFFF" transform="translate(0,240)"/>
<path d="M0 0 C4.95 0 9.9 0 15 0 C15 4.95 15 9.9 15 15 C10.05 15 5.1 15 0 15 C0 10.05 0 5.1 0 0 Z " fill="#FFFFFF" transform="translate(345,225)"/>
<path d="M0 0 C4.95 0 9.9 0 15 0 C15 4.95 15 9.9 15 15 C10.05 15 5.1 15 0 15 C0 10.05 0 5.1 0 0 Z " fill="#EFEFEE" transform="translate(150,225)"/>
<path d="M0 0 C4.95 0 9.9 0 15 0 C15 4.95 15 9.9 15 15 C10.05 15 5.1 15 0 15 C0 10.05 0 5.1 0 0 Z " fill="#FFFFFF" transform="translate(135,225)"/>
<path d="M0 0 C4.95 0 9.9 0 15 0 C15 4.95 15 9.9 15 15 C10.05 15 5.1 15 0 15 C0 10.05 0 5.1 0 0 Z " fill="#FFFFFF" transform="translate(15,225)"/>
<path d="M0 0 C4.95 0 9.9 0 15 0 C15 4.95 15 9.9 15 15 C10.05 15 5.1 15 0 15 C0 10.05 0 5.1 0 0 Z " fill="#EFEFEE" transform="translate(0,225)"/>
<path d="M0 0 C4.95 0 9.9 0 15 0 C15 4.95 15 9.9 15 15 C10.05 15 5.1 15 0 15 C0 10.05 0 5.1 0 0 Z " fill="#EFEFEE" transform="translate(345,210)"/>
<path d="M0 0 C4.95 0 9.9 0 15 0 C15 4.95 15 9.9 15 15 C10.05 15 5.1 15 0 15 C0 10.05 0 5.1 0 0 Z " fill="#FFFFFF" transform="translate(330,210)"/>
<path d="M0 0 C4.95 0 9.9 0 15 0 C15 4.95 15 9.9 15 15 C10.05 15 5.1 15 0 15 C0 10.05 0 5.1 0 0 Z " fill="#EFEFEE" transform="translate(135,210)"/>
<path d="M0 0 C4.95 0 9.9 0 15 0 C15 4.95 15 9.9 15 15 C10.05 15 5.1 15 0 15 C0 10.05 0 5.1 0 0 Z " fill="#FFFFFF" transform="translate(120,210)"/>
<path d="M0 0 C4.95 0 9.9 0 15 0 C15 4.95 15 9.9 15 15 C10.05 15 5.1 15 0 15 C0 10.05 0 5.1 0 0 Z " fill="#EFEFEE" transform="translate(15,210)"/>
<path d="M0 0 C4.95 0 9.9 0 15 0 C15 4.95 15 9.9 15 15 C10.05 15 5.1 15 0 15 C0 10.05 0 5.1 0 0 Z " fill="#FFFFFF" transform="translate(0,210)"/>
<path d="M0 0 C4.95 0 9.9 0 15 0 C15 4.95 15 9.9 15 15 C10.05 15 5.1 15 0 15 C0 10.05 0 5.1 0 0 Z " fill="#FFFFFF" transform="translate(345,195)"/>
<path d="M0 0 C4.95 0 9.9 0 15 0 C15 4.95 15 9.9 15 15 C10.05 15 5.1 15 0 15 C0 10.05 0 5.1 0 0 Z " fill="#EFEFEE" transform="translate(330,195)"/>
<path d="M0 0 C4.95 0 9.9 0 15 0 C15 4.95 15 9.9 15 15 C10.05 15 5.1 15 0 15 C0 10.05 0 5.1 0 0 Z " fill="#EFEFEE" transform="translate(120,195)"/>
<path d="M0 0 C4.95 0 9.9 0 15 0 C15 4.95 15 9.9 15 15 C10.05 15 5.1 15 0 15 C0 10.05 0 5.1 0 0 Z " fill="#FFFFFF" transform="translate(105,195)"/>
<path d="M0 0 C4.95 0 9.9 0 15 0 C15 4.95 15 9.9 15 15 C10.05 15 5.1 15 0 15 C0 10.05 0 5.1 0 0 Z " fill="#FFFFFF" transform="translate(15,195)"/>
<path d="M0 0 C4.95 0 9.9 0 15 0 C15 4.95 15 9.9 15 15 C10.05 15 5.1 15 0 15 C0 10.05 0 5.1 0 0 Z " fill="#EFEFEE" transform="translate(0,195)"/>
<path d="M0 0 C4.95 0 9.9 0 15 0 C15 4.95 15 9.9 15 15 C10.05 15 5.1 15 0 15 C0 10.05 0 5.1 0 0 Z " fill="#EFEFEE" transform="translate(345,180)"/>
<path d="M0 0 C4.95 0 9.9 0 15 0 C15 4.95 15 9.9 15 15 C10.05 15 5.1 15 0 15 C0 10.05 0 5.1 0 0 Z " fill="#FFFFFF" transform="translate(330,180)"/>
<path d="M0 0 C4.95 0 9.9 0 15 0 C15 4.95 15 9.9 15 15 C10.05 15 5.1 15 0 15 C0 10.05 0 5.1 0 0 Z " fill="#EFEFEE" transform="translate(315,180)"/>
<path d="M0 0 C4.95 0 9.9 0 15 0 C15 4.95 15 9.9 15 15 C10.05 15 5.1 15 0 15 C0 10.05 0 5.1 0 0 Z " fill="#EFEFEE" transform="translate(105,180)"/>
<path d="M0 0 C4.95 0 9.9 0 15 0 C15 4.95 15 9.9 15 15 C10.05 15 5.1 15 0 15 C0 10.05 0 5.1 0 0 Z " fill="#EFEFEE" transform="translate(15,180)"/>
<path d="M0 0 C4.95 0 9.9 0 15 0 C15 4.95 15 9.9 15 15 C10.05 15 5.1 15 0 15 C0 10.05 0 5.1 0 0 Z " fill="#FFFFFF" transform="translate(0,180)"/>
<path d="M0 0 C4.95 0 9.9 0 15 0 C15 4.95 15 9.9 15 15 C10.05 15 5.1 15 0 15 C0 10.05 0 5.1 0 0 Z " fill="#FFFFFF" transform="translate(345,165)"/>
<path d="M0 0 C4.95 0 9.9 0 15 0 C15 4.95 15 9.9 15 15 C10.05 15 5.1 15 0 15 C0 10.05 0 5.1 0 0 Z " fill="#EFEFEE" transform="translate(330,165)"/>
<path d="M0 0 C4.95 0 9.9 0 15 0 C15 4.95 15 9.9 15 15 C10.05 15 5.1 15 0 15 C0 10.05 0 5.1 0 0 Z " fill="#FFFFFF" transform="translate(315,165)"/>
<path d="M0 0 C4.95 0 9.9 0 15 0 C15 4.95 15 9.9 15 15 C10.05 15 5.1 15 0 15 C0 10.05 0 5.1 0 0 Z " fill="#FFFFFF" transform="translate(105,165)"/>
<path d="M0 0 C4.95 0 9.9 0 15 0 C15 4.95 15 9.9 15 15 C10.05 15 5.1 15 0 15 C0 10.05 0 5.1 0 0 Z " fill="#FFFFFF" transform="translate(15,165)"/>
<path d="M0 0 C4.95 0 9.9 0 15 0 C15 4.95 15 9.9 15 15 C10.05 15 5.1 15 0 15 C0 10.05 0 5.1 0 0 Z " fill="#EFEFEE" transform="translate(0,165)"/>
<path d="M0 0 C4.95 0 9.9 0 15 0 C15 4.95 15 9.9 15 15 C10.05 15 5.1 15 0 15 C0 10.05 0 5.1 0 0 Z " fill="#EFEFEE" transform="translate(345,150)"/>
<path d="M0 0 C4.95 0 9.9 0 15 0 C15 4.95 15 9.9 15 15 C10.05 15 5.1 15 0 15 C0 10.05 0 5.1 0 0 Z " fill="#FFFFFF" transform="translate(330,150)"/>
<path d="M0 0 C4.95 0 9.9 0 15 0 C15 4.95 15 9.9 15 15 C10.05 15 5.1 15 0 15 C0 10.05 0 5.1 0 0 Z " fill="#FFFFFF" transform="translate(120,150)"/>
<path d="M0 0 C4.95 0 9.9 0 15 0 C15 4.95 15 9.9 15 15 C10.05 15 5.1 15 0 15 C0 10.05 0 5.1 0 0 Z " fill="#FFFFFF" transform="translate(30,150)"/>
<path d="M0 0 C4.95 0 9.9 0 15 0 C15 4.95 15 9.9 15 15 C10.05 15 5.1 15 0 15 C0 10.05 0 5.1 0 0 Z " fill="#EFEFEE" transform="translate(15,150)"/>
<path d="M0 0 C4.95 0 9.9 0 15 0 C15 4.95 15 9.9 15 15 C10.05 15 5.1 15 0 15 C0 10.05 0 5.1 0 0 Z " fill="#FFFFFF" transform="translate(0,150)"/>
<path d="M0 0 C4.95 0 9.9 0 15 0 C15 4.95 15 9.9 15 15 C10.05 15 5.1 15 0 15 C0 10.05 0 5.1 0 0 Z " fill="#FFFFFF" transform="translate(345,135)"/>
<path d="M0 0 C4.95 0 9.9 0 15 0 C15 4.95 15 9.9 15 15 C10.05 15 5.1 15 0 15 C0 10.05 0 5.1 0 0 Z " fill="#EFEFEE" transform="translate(330,135)"/>
<path d="M0 0 C4.95 0 9.9 0 15 0 C15 4.95 15 9.9 15 15 C10.05 15 5.1 15 0 15 C0 10.05 0 5.1 0 0 Z " fill="#FFFFFF" transform="translate(315,135)"/>
<path d="M0 0 C4.95 0 9.9 0 15 0 C15 4.95 15 9.9 15 15 C10.05 15 5.1 15 0 15 C0 10.05 0 5.1 0 0 Z " fill="#FFFFFF" transform="translate(165,135)"/>
<path d="M0 0 C4.95 0 9.9 0 15 0 C15 4.95 15 9.9 15 15 C10.05 15 5.1 15 0 15 C0 10.05 0 5.1 0 0 Z " fill="#FFFFFF" transform="translate(135,135)"/>
<path d="M0 0 C4.95 0 9.9 0 15 0 C15 4.95 15 9.9 15 15 C10.05 15 5.1 15 0 15 C0 10.05 0 5.1 0 0 Z " fill="#FFFFFF" transform="translate(15,135)"/>
<path d="M0 0 C4.95 0 9.9 0 15 0 C15 4.95 15 9.9 15 15 C10.05 15 5.1 15 0 15 C0 10.05 0 5.1 0 0 Z " fill="#EFEFEE" transform="translate(0,135)"/>
<path d="M0 0 C4.95 0 9.9 0 15 0 C15 4.95 15 9.9 15 15 C10.05 15 5.1 15 0 15 C0 10.05 0 5.1 0 0 Z " fill="#EFEFEE" transform="translate(345,120)"/>
<path d="M0 0 C4.95 0 9.9 0 15 0 C15 4.95 15 9.9 15 15 C10.05 15 5.1 15 0 15 C0 10.05 0 5.1 0 0 Z " fill="#FFFFFF" transform="translate(330,120)"/>
<path d="M0 0 C4.95 0 9.9 0 15 0 C15 4.95 15 9.9 15 15 C10.05 15 5.1 15 0 15 C0 10.05 0 5.1 0 0 Z " fill="#FFFFFF" transform="translate(30,120)"/>
<path d="M0 0 C4.95 0 9.9 0 15 0 C15 4.95 15 9.9 15 15 C10.05 15 5.1 15 0 15 C0 10.05 0 5.1 0 0 Z " fill="#EFEFEE" transform="translate(15,120)"/>
<path d="M0 0 C4.95 0 9.9 0 15 0 C15 4.95 15 9.9 15 15 C10.05 15 5.1 15 0 15 C0 10.05 0 5.1 0 0 Z " fill="#FFFFFF" transform="translate(0,120)"/>
<path d="M0 0 C4.95 0 9.9 0 15 0 C15 4.95 15 9.9 15 15 C10.05 15 5.1 15 0 15 C0 10.05 0 5.1 0 0 Z " fill="#FFFFFF" transform="translate(345,105)"/>
<path d="M0 0 C4.95 0 9.9 0 15 0 C15 4.95 15 9.9 15 15 C10.05 15 5.1 15 0 15 C0 10.05 0 5.1 0 0 Z " fill="#EFEFEE" transform="translate(330,105)"/>
<path d="M0 0 C4.95 0 9.9 0 15 0 C15 4.95 15 9.9 15 15 C10.05 15 5.1 15 0 15 C0 10.05 0 5.1 0 0 Z " fill="#FFFFFF" transform="translate(315,105)"/>
<path d="M0 0 C4.95 0 9.9 0 15 0 C15 4.95 15 9.9 15 15 C10.05 15 5.1 15 0 15 C0 10.05 0 5.1 0 0 Z " fill="#FFFFFF" transform="translate(15,105)"/>
<path d="M0 0 C4.95 0 9.9 0 15 0 C15 4.95 15 9.9 15 15 C10.05 15 5.1 15 0 15 C0 10.05 0 5.1 0 0 Z " fill="#EFEFEE" transform="translate(0,105)"/>
<path d="M0 0 C4.95 0 9.9 0 15 0 C15 4.95 15 9.9 15 15 C10.05 15 5.1 15 0 15 C0 10.05 0 5.1 0 0 Z " fill="#EFEFEE" transform="translate(345,90)"/>
<path d="M0 0 C4.95 0 9.9 0 15 0 C15 4.95 15 9.9 15 15 C10.05 15 5.1 15 0 15 C0 10.05 0 5.1 0 0 Z " fill="#FFFFFF" transform="translate(330,90)"/>
<path d="M0 0 C4.95 0 9.9 0 15 0 C15 4.95 15 9.9 15 15 C10.05 15 5.1 15 0 15 C0 10.05 0 5.1 0 0 Z " fill="#EFEFEE" transform="translate(315,90)"/>
<path d="M0 0 C4.95 0 9.9 0 15 0 C15 4.95 15 9.9 15 15 C10.05 15 5.1 15 0 15 C0 10.05 0 5.1 0 0 Z " fill="#FFFFFF" transform="translate(30,90)"/>
<path d="M0 0 C4.95 0 9.9 0 15 0 C15 4.95 15 9.9 15 15 C10.05 15 5.1 15 0 15 C0 10.05 0 5.1 0 0 Z " fill="#EFEFEE" transform="translate(15,90)"/>
<path d="M0 0 C4.95 0 9.9 0 15 0 C15 4.95 15 9.9 15 15 C10.05 15 5.1 15 0 15 C0 10.05 0 5.1 0 0 Z " fill="#FFFFFF" transform="translate(0,90)"/>
<path d="M0 0 C4.95 0 9.9 0 15 0 C15 4.95 15 9.9 15 15 C10.05 15 5.1 15 0 15 C0 10.05 0 5.1 0 0 Z " fill="#FFFFFF" transform="translate(345,75)"/>
<path d="M0 0 C4.95 0 9.9 0 15 0 C15 4.95 15 9.9 15 15 C10.05 15 5.1 15 0 15 C0 10.05 0 5.1 0 0 Z " fill="#EFEFEE" transform="translate(330,75)"/>
<path d="M0 0 C4.95 0 9.9 0 15 0 C15 4.95 15 9.9 15 15 C10.05 15 5.1 15 0 15 C0 10.05 0 5.1 0 0 Z " fill="#FFFFFF" transform="translate(315,75)"/>
<path d="M0 0 C4.95 0 9.9 0 15 0 C15 4.95 15 9.9 15 15 C10.05 15 5.1 15 0 15 C0 10.05 0 5.1 0 0 Z " fill="#EFEFEE" transform="translate(300,75)"/>
<path d="M0 0 C4.95 0 9.9 0 15 0 C15 4.95 15 9.9 15 15 C10.05 15 5.1 15 0 15 C0 10.05 0 5.1 0 0 Z " fill="#FFFFFF" transform="translate(75,75)"/>
<path d="M0 0 C4.95 0 9.9 0 15 0 C15 4.95 15 9.9 15 15 C10.05 15 5.1 15 0 15 C0 10.05 0 5.1 0 0 Z " fill="#EFEFEE" transform="translate(60,75)"/>
<path d="M0 0 C4.95 0 9.9 0 15 0 C15 4.95 15 9.9 15 15 C10.05 15 5.1 15 0 15 C0 10.05 0 5.1 0 0 Z " fill="#FFFFFF" transform="translate(45,75)"/>
<path d="M0 0 C4.95 0 9.9 0 15 0 C15 4.95 15 9.9 15 15 C10.05 15 5.1 15 0 15 C0 10.05 0 5.1 0 0 Z " fill="#EFEFEE" transform="translate(30,75)"/>
<path d="M0 0 C4.95 0 9.9 0 15 0 C15 4.95 15 9.9 15 15 C10.05 15 5.1 15 0 15 C0 10.05 0 5.1 0 0 Z " fill="#FFFFFF" transform="translate(15,75)"/>
<path d="M0 0 C4.95 0 9.9 0 15 0 C15 4.95 15 9.9 15 15 C10.05 15 5.1 15 0 15 C0 10.05 0 5.1 0 0 Z " fill="#EFEFEE" transform="translate(0,75)"/>
<path d="M0 0 C4.95 0 9.9 0 15 0 C15 4.95 15 9.9 15 15 C10.05 15 5.1 15 0 15 C0 10.05 0 5.1 0 0 Z " fill="#EFEFEE" transform="translate(345,60)"/>
<path d="M0 0 C4.95 0 9.9 0 15 0 C15 4.95 15 9.9 15 15 C10.05 15 5.1 15 0 15 C0 10.05 0 5.1 0 0 Z " fill="#FFFFFF" transform="translate(330,60)"/>
<path d="M0 0 C4.95 0 9.9 0 15 0 C15 4.95 15 9.9 15 15 C10.05 15 5.1 15 0 15 C0 10.05 0 5.1 0 0 Z " fill="#EFEFEE" transform="translate(315,60)"/>
<path d="M0 0 C4.95 0 9.9 0 15 0 C15 4.95 15 9.9 15 15 C10.05 15 5.1 15 0 15 C0 10.05 0 5.1 0 0 Z " fill="#FFFFFF" transform="translate(300,60)"/>
<path d="M0 0 C4.95 0 9.9 0 15 0 C15 4.95 15 9.9 15 15 C10.05 15 5.1 15 0 15 C0 10.05 0 5.1 0 0 Z " fill="#EFEFEE" transform="translate(75,60)"/>
<path d="M0 0 C4.95 0 9.9 0 15 0 C15 4.95 15 9.9 15 15 C10.05 15 5.1 15 0 15 C0 10.05 0 5.1 0 0 Z " fill="#FFFFFF" transform="translate(60,60)"/>
<path d="M0 0 C4.95 0 9.9 0 15 0 C15 4.95 15 9.9 15 15 C10.05 15 5.1 15 0 15 C0 10.05 0 5.1 0 0 Z " fill="#EFEFEE" transform="translate(45,60)"/>
<path d="M0 0 C4.95 0 9.9 0 15 0 C15 4.95 15 9.9 15 15 C10.05 15 5.1 15 0 15 C0 10.05 0 5.1 0 0 Z " fill="#FFFFFF" transform="translate(30,60)"/>
<path d="M0 0 C4.95 0 9.9 0 15 0 C15 4.95 15 9.9 15 15 C10.05 15 5.1 15 0 15 C0 10.05 0 5.1 0 0 Z " fill="#EFEFEE" transform="translate(15,60)"/>
<path d="M0 0 C4.95 0 9.9 0 15 0 C15 4.95 15 9.9 15 15 C10.05 15 5.1 15 0 15 C0 10.05 0 5.1 0 0 Z " fill="#FFFFFF" transform="translate(0,60)"/>
<path d="M0 0 C4.95 0 9.9 0 15 0 C15 4.95 15 9.9 15 15 C10.05 15 5.1 15 0 15 C0 10.05 0 5.1 0 0 Z " fill="#FFFFFF" transform="translate(345,45)"/>
<path d="M0 0 C4.95 0 9.9 0 15 0 C15 4.95 15 9.9 15 15 C10.05 15 5.1 15 0 15 C0 10.05 0 5.1 0 0 Z " fill="#EFEFEE" transform="translate(330,45)"/>
<path d="M0 0 C4.95 0 9.9 0 15 0 C15 4.95 15 9.9 15 15 C10.05 15 5.1 15 0 15 C0 10.05 0 5.1 0 0 Z " fill="#FFFFFF" transform="translate(315,45)"/>
<path d="M0 0 C4.95 0 9.9 0 15 0 C15 4.95 15 9.9 15 15 C10.05 15 5.1 15 0 15 C0 10.05 0 5.1 0 0 Z " fill="#EFEFEE" transform="translate(300,45)"/>
<path d="M0 0 C4.95 0 9.9 0 15 0 C15 4.95 15 9.9 15 15 C10.05 15 5.1 15 0 15 C0 10.05 0 5.1 0 0 Z " fill="#FFFFFF" transform="translate(285,45)"/>
<path d="M0 0 C4.95 0 9.9 0 15 0 C15 4.95 15 9.9 15 15 C10.05 15 5.1 15 0 15 C0 10.05 0 5.1 0 0 Z " fill="#EFEFEE" transform="translate(90,45)"/>
<path d="M0 0 C4.95 0 9.9 0 15 0 C15 4.95 15 9.9 15 15 C10.05 15 5.1 15 0 15 C0 10.05 0 5.1 0 0 Z " fill="#FFFFFF" transform="translate(75,45)"/>
<path d="M0 0 C4.95 0 9.9 0 15 0 C15 4.95 15 9.9 15 15 C10.05 15 5.1 15 0 15 C0 10.05 0 5.1 0 0 Z " fill="#EFEFEE" transform="translate(60,45)"/>
<path d="M0 0 C4.95 0 9.9 0 15 0 C15 4.95 15 9.9 15 15 C10.05 15 5.1 15 0 15 C0 10.05 0 5.1 0 0 Z " fill="#FFFFFF" transform="translate(45,45)"/>
<path d="M0 0 C4.95 0 9.9 0 15 0 C15 4.95 15 9.9 15 15 C10.05 15 5.1 15 0 15 C0 10.05 0 5.1 0 0 Z " fill="#EFEFEE" transform="translate(30,45)"/>
<path d="M0 0 C4.95 0 9.9 0 15 0 C15 4.95 15 9.9 15 15 C10.05 15 5.1 15 0 15 C0 10.05 0 5.1 0 0 Z " fill="#FFFFFF" transform="translate(15,45)"/>
<path d="M0 0 C4.95 0 9.9 0 15 0 C15 4.95 15 9.9 15 15 C10.05 15 5.1 15 0 15 C0 10.05 0 5.1 0 0 Z " fill="#EFEFEE" transform="translate(0,45)"/>
<path d="M0 0 C4.95 0 9.9 0 15 0 C15 4.95 15 9.9 15 15 C10.05 15 5.1 15 0 15 C0 10.05 0 5.1 0 0 Z " fill="#EFEFEE" transform="translate(345,30)"/>
<path d="M0 0 C4.95 0 9.9 0 15 0 C15 4.95 15 9.9 15 15 C10.05 15 5.1 15 0 15 C0 10.05 0 5.1 0 0 Z " fill="#FFFFFF" transform="translate(330,30)"/>
<path d="M0 0 C4.95 0 9.9 0 15 0 C15 4.95 15 9.9 15 15 C10.05 15 5.1 15 0 15 C0 10.05 0 5.1 0 0 Z " fill="#EFEFEE" transform="translate(315,30)"/>
<path d="M0 0 C4.95 0 9.9 0 15 0 C15 4.95 15 9.9 15 15 C10.05 15 5.1 15 0 15 C0 10.05 0 5.1 0 0 Z " fill="#FFFFFF" transform="translate(300,30)"/>
<path d="M0 0 C4.95 0 9.9 0 15 0 C15 4.95 15 9.9 15 15 C10.05 15 5.1 15 0 15 C0 10.05 0 5.1 0 0 Z " fill="#EFEFEE" transform="translate(285,30)"/>
<path d="M0 0 C4.95 0 9.9 0 15 0 C15 4.95 15 9.9 15 15 C10.05 15 5.1 15 0 15 C0 10.05 0 5.1 0 0 Z " fill="#FFFFFF" transform="translate(270,30)"/>
<path d="M0 0 C4.95 0 9.9 0 15 0 C15 4.95 15 9.9 15 15 C10.05 15 5.1 15 0 15 C0 10.05 0 5.1 0 0 Z " fill="#EFEFEE" transform="translate(255,30)"/>
<path d="M0 0 C4.95 0 9.9 0 15 0 C15 4.95 15 9.9 15 15 C10.05 15 5.1 15 0 15 C0 10.05 0 5.1 0 0 Z " fill="#FFFFFF" transform="translate(240,30)"/>
<path d="M0 0 C4.95 0 9.9 0 15 0 C15 4.95 15 9.9 15 15 C10.05 15 5.1 15 0 15 C0 10.05 0 5.1 0 0 Z " fill="#EFEFEE" transform="translate(225,30)"/>
<path d="M0 0 C4.95 0 9.9 0 15 0 C15 4.95 15 9.9 15 15 C10.05 15 5.1 15 0 15 C0 10.05 0 5.1 0 0 Z " fill="#FFFFFF" transform="translate(90,30)"/>
<path d="M0 0 C4.95 0 9.9 0 15 0 C15 4.95 15 9.9 15 15 C10.05 15 5.1 15 0 15 C0 10.05 0 5.1 0 0 Z " fill="#EFEFEE" transform="translate(75,30)"/>
<path d="M0 0 C4.95 0 9.9 0 15 0 C15 4.95 15 9.9 15 15 C10.05 15 5.1 15 0 15 C0 10.05 0 5.1 0 0 Z " fill="#FFFFFF" transform="translate(60,30)"/>
<path d="M0 0 C4.95 0 9.9 0 15 0 C15 4.95 15 9.9 15 15 C10.05 15 5.1 15 0 15 C0 10.05 0 5.1 0 0 Z " fill="#EFEFEE" transform="translate(45,30)"/>
<path d="M0 0 C4.95 0 9.9 0 15 0 C15 4.95 15 9.9 15 15 C10.05 15 5.1 15 0 15 C0 10.05 0 5.1 0 0 Z " fill="#FFFFFF" transform="translate(30,30)"/>
<path d="M0 0 C4.95 0 9.9 0 15 0 C15 4.95 15 9.9 15 15 C10.05 15 5.1 15 0 15 C0 10.05 0 5.1 0 0 Z " fill="#EFEFEE" transform="translate(15,30)"/>
<path d="M0 0 C4.95 0 9.9 0 15 0 C15 4.95 15 9.9 15 15 C10.05 15 5.1 15 0 15 C0 10.05 0 5.1 0 0 Z " fill="#FFFFFF" transform="translate(0,30)"/>
<path d="M0 0 C4.95 0 9.9 0 15 0 C15 4.95 15 9.9 15 15 C10.05 15 5.1 15 0 15 C0 10.05 0 5.1 0 0 Z " fill="#FFFFFF" transform="translate(345,15)"/>
<path d="M0 0 C4.95 0 9.9 0 15 0 C15 4.95 15 9.9 15 15 C10.05 15 5.1 15 0 15 C0 10.05 0 5.1 0 0 Z " fill="#EFEFEE" transform="translate(330,15)"/>
<path d="M0 0 C4.95 0 9.9 0 15 0 C15 4.95 15 9.9 15 15 C10.05 15 5.1 15 0 15 C0 10.05 0 5.1 0 0 Z " fill="#FFFFFF" transform="translate(315,15)"/>
<path d="M0 0 C4.95 0 9.9 0 15 0 C15 4.95 15 9.9 15 15 C10.05 15 5.1 15 0 15 C0 10.05 0 5.1 0 0 Z " fill="#EFEFEE" transform="translate(300,15)"/>
<path d="M0 0 C4.95 0 9.9 0 15 0 C15 4.95 15 9.9 15 15 C10.05 15 5.1 15 0 15 C0 10.05 0 5.1 0 0 Z " fill="#FFFFFF" transform="translate(285,15)"/>
<path d="M0 0 C4.95 0 9.9 0 15 0 C15 4.95 15 9.9 15 15 C10.05 15 5.1 15 0 15 C0 10.05 0 5.1 0 0 Z " fill="#EFEFEE" transform="translate(270,15)"/>
<path d="M0 0 C4.95 0 9.9 0 15 0 C15 4.95 15 9.9 15 15 C10.05 15 5.1 15 0 15 C0 10.05 0 5.1 0 0 Z " fill="#FFFFFF" transform="translate(255,15)"/>
<path d="M0 0 C4.95 0 9.9 0 15 0 C15 4.95 15 9.9 15 15 C10.05 15 5.1 15 0 15 C0 10.05 0 5.1 0 0 Z " fill="#EFEFEE" transform="translate(240,15)"/>
<path d="M0 0 C4.95 0 9.9 0 15 0 C15 4.95 15 9.9 15 15 C10.05 15 5.1 15 0 15 C0 10.05 0 5.1 0 0 Z " fill="#FFFFFF" transform="translate(225,15)"/>
<path d="M0 0 C4.95 0 9.9 0 15 0 C15 4.95 15 9.9 15 15 C10.05 15 5.1 15 0 15 C0 10.05 0 5.1 0 0 Z " fill="#FFFFFF" transform="translate(105,15)"/>
<path d="M0 0 C4.95 0 9.9 0 15 0 C15 4.95 15 9.9 15 15 C10.05 15 5.1 15 0 15 C0 10.05 0 5.1 0 0 Z " fill="#EFEFEE" transform="translate(90,15)"/>
<path d="M0 0 C4.95 0 9.9 0 15 0 C15 4.95 15 9.9 15 15 C10.05 15 5.1 15 0 15 C0 10.05 0 5.1 0 0 Z " fill="#FFFFFF" transform="translate(75,15)"/>
<path d="M0 0 C4.95 0 9.9 0 15 0 C15 4.95 15 9.9 15 15 C10.05 15 5.1 15 0 15 C0 10.05 0 5.1 0 0 Z " fill="#EFEFEE" transform="translate(60,15)"/>
<path d="M0 0 C4.95 0 9.9 0 15 0 C15 4.95 15 9.9 15 15 C10.05 15 5.1 15 0 15 C0 10.05 0 5.1 0 0 Z " fill="#FFFFFF" transform="translate(45,15)"/>
<path d="M0 0 C4.95 0 9.9 0 15 0 C15 4.95 15 9.9 15 15 C10.05 15 5.1 15 0 15 C0 10.05 0 5.1 0 0 Z " fill="#EFEFEE" transform="translate(30,15)"/>
<path d="M0 0 C4.95 0 9.9 0 15 0 C15 4.95 15 9.9 15 15 C10.05 15 5.1 15 0 15 C0 10.05 0 5.1 0 0 Z " fill="#FFFFFF" transform="translate(15,15)"/>
<path d="M0 0 C4.95 0 9.9 0 15 0 C15 4.95 15 9.9 15 15 C10.05 15 5.1 15 0 15 C0 10.05 0 5.1 0 0 Z " fill="#EFEFEE" transform="translate(0,15)"/>
<path d="M0 0 C4.95 0 9.9 0 15 0 C15 4.95 15 9.9 15 15 C10.05 15 5.1 15 0 15 C0 10.05 0 5.1 0 0 Z " fill="#EFEFEE" transform="translate(345,0)"/>
<path d="M0 0 C4.95 0 9.9 0 15 0 C15 4.95 15 9.9 15 15 C10.05 15 5.1 15 0 15 C0 10.05 0 5.1 0 0 Z " fill="#FFFFFF" transform="translate(330,0)"/>
<path d="M0 0 C4.95 0 9.9 0 15 0 C15 4.95 15 9.9 15 15 C10.05 15 5.1 15 0 15 C0 10.05 0 5.1 0 0 Z " fill="#EFEFEE" transform="translate(315,0)"/>
<path d="M0 0 C4.95 0 9.9 0 15 0 C15 4.95 15 9.9 15 15 C10.05 15 5.1 15 0 15 C0 10.05 0 5.1 0 0 Z " fill="#FFFFFF" transform="translate(300,0)"/>
<path d="M0 0 C4.95 0 9.9 0 15 0 C15 4.95 15 9.9 15 15 C10.05 15 5.1 15 0 15 C0 10.05 0 5.1 0 0 Z " fill="#EFEFEE" transform="translate(285,0)"/>
<path d="M0 0 C4.95 0 9.9 0 15 0 C15 4.95 15 9.9 15 15 C10.05 15 5.1 15 0 15 C0 10.05 0 5.1 0 0 Z " fill="#FFFFFF" transform="translate(270,0)"/>
<path d="M0 0 C4.95 0 9.9 0 15 0 C15 4.95 15 9.9 15 15 C10.05 15 5.1 15 0 15 C0 10.05 0 5.1 0 0 Z " fill="#EFEFEE" transform="translate(255,0)"/>
<path d="M0 0 C4.95 0 9.9 0 15 0 C15 4.95 15 9.9 15 15 C10.05 15 5.1 15 0 15 C0 10.05 0 5.1 0 0 Z " fill="#FFFFFF" transform="translate(240,0)"/>
<path d="M0 0 C4.95 0 9.9 0 15 0 C15 4.95 15 9.9 15 15 C10.05 15 5.1 15 0 15 C0 10.05 0 5.1 0 0 Z " fill="#EFEFEE" transform="translate(225,0)"/>
<path d="M0 0 C4.95 0 9.9 0 15 0 C15 4.95 15 9.9 15 15 C10.05 15 5.1 15 0 15 C0 10.05 0 5.1 0 0 Z " fill="#FFFFFF" transform="translate(210,0)"/>
<path d="M0 0 C4.95 0 9.9 0 15 0 C15 4.95 15 9.9 15 15 C10.05 15 5.1 15 0 15 C0 10.05 0 5.1 0 0 Z " fill="#FFFFFF" transform="translate(120,0)"/>
<path d="M0 0 C4.95 0 9.9 0 15 0 C15 4.95 15 9.9 15 15 C10.05 15 5.1 15 0 15 C0 10.05 0 5.1 0 0 Z " fill="#EFEFEE" transform="translate(105,0)"/>
<path d="M0 0 C4.95 0 9.9 0 15 0 C15 4.95 15 9.9 15 15 C10.05 15 5.1 15 0 15 C0 10.05 0 5.1 0 0 Z " fill="#FFFFFF" transform="translate(90,0)"/>
<path d="M0 0 C4.95 0 9.9 0 15 0 C15 4.95 15 9.9 15 15 C10.05 15 5.1 15 0 15 C0 10.05 0 5.1 0 0 Z " fill="#EFEFEE" transform="translate(75,0)"/>
<path d="M0 0 C4.95 0 9.9 0 15 0 C15 4.95 15 9.9 15 15 C10.05 15 5.1 15 0 15 C0 10.05 0 5.1 0 0 Z " fill="#FFFFFF" transform="translate(60,0)"/>
<path d="M0 0 C4.95 0 9.9 0 15 0 C15 4.95 15 9.9 15 15 C10.05 15 5.1 15 0 15 C0 10.05 0 5.1 0 0 Z " fill="#EFEFEE" transform="translate(45,0)"/>
<path d="M0 0 C4.95 0 9.9 0 15 0 C15 4.95 15 9.9 15 15 C10.05 15 5.1 15 0 15 C0 10.05 0 5.1 0 0 Z " fill="#FFFFFF" transform="translate(30,0)"/>
<path d="M0 0 C4.95 0 9.9 0 15 0 C15 4.95 15 9.9 15 15 C10.05 15 5.1 15 0 15 C0 10.05 0 5.1 0 0 Z " fill="#FFFFFF" transform="translate(0,0)"/>
<path d="M0 0 C4.95 0 9.9 0 15 0 C15.29296875 9.9609375 15.29296875 9.9609375 15 13 C10.25368713 16.16420858 5.63243123 15.12112755 0 15 C0 10.05 0 5.1 0 0 Z " fill="#EEEFED" transform="translate(45,90)"/>
<path d="M0 0 C4.95 0 9.9 0 15 0 C15.09038099 5.15171623 14.84681133 9.91913204 14 15 C9.38 15 4.76 15 0 15 C0 10.05 0 5.1 0 0 Z " fill="#FEFEFE" transform="translate(30,180)"/>
<path d="M0 0 C4.62 0 9.24 0 14 0 C14 4.95 14 9.9 14 15 C9.41015625 14.85351562 9.41015625 14.85351562 4.8203125 14.70703125 C3.42425781 14.85205078 3.42425781 14.85205078 2 15 C1.34 15.99 0.68 16.98 0 18 C-0.19620767 15.93831015 -0.38160753 13.87559002 -0.5625 11.8125 C-0.66691406 10.66394531 -0.77132813 9.51539063 -0.87890625 8.33203125 C-1 5 -1 5 0 0 Z " fill="#ECEEEB" transform="translate(316,210)"/>
<path d="M0 0 C4.95 0 9.9 0 15 0 C15 4.95 15 9.9 15 15 C2.14285714 14 2.14285714 14 -3 13 C-2.01 12.67 -1.02 12.34 0 12 C0 8.04 0 4.08 0 0 Z " fill="#FEFEFE" transform="translate(150,150)"/>
<path d="M0 0 C0 4.95 0 9.9 0 15 C-4.95 15 -9.9 15 -15 15 C-15.1953125 5.8203125 -15.1953125 5.8203125 -15 3 C-11.00349459 -0.99650541 -5.31261102 -0.09004425 0 0 Z " fill="#FDFEFD" transform="translate(270,345)"/>
<path d="M0 0 C4.95 0 9.9 0 15 0 C15 4.95 15 9.9 15 15 C5.0390625 15.1953125 5.0390625 15.1953125 2 15 C0 13 0 13 -0.1953125 9.9609375 C-0.13020833 6.640625 -0.06510417 3.3203125 0 0 Z " fill="#EEEEEC" transform="translate(300,105)"/>
<path d="M0 0 C10.83984375 -0.09765625 10.83984375 -0.09765625 14 0 C14.33 0.33 14.66 0.66 15 1 C14.96206177 2.98154285 14.84489394 4.96185364 14.6875 6.9375 C14.56955078 8.55978516 14.56955078 8.55978516 14.44921875 10.21484375 C14 13 14 13 12 15 C7.98805634 15.27783543 4.02552638 15.0856495 0 15 C0 10.05 0 5.1 0 0 Z " fill="#EEEFED" transform="translate(15,300)"/>
<path d="M0 0 C0.33 0 0.66 0 1 0 C1 1.98 1 3.96 1 6 C5.29 6 9.58 6 14 6 C14 10.95 14 15.9 14 21 C10.7 21 7.4 21 4 21 C4 22.65 4 24.3 4 26 C-0.34377157 21.65622843 0.10996204 12.76966899 -0.125 6.8515625 C-0.125 4.56365311 -0.09480177 2.28577603 0 0 Z " fill="#FCFDFC" transform="translate(301,114)"/>
<path d="M0 0 C0.33 0 0.66 0 1 0 C1 6.93 1 13.86 1 21 C1.66 21.33 2.32 21.66 3 22 C-1.96260257 23.91539047 -6.86626838 25.60961435 -12 27 C-11.53724282 20.53609024 -9.82927325 15.76356879 -6.9375 10 C-6.56044922 9.22527344 -6.18339844 8.45054688 -5.79492188 7.65234375 C-4.87364378 5.76314056 -3.93827297 3.88082053 -3 2 C-2.01 2 -1.02 2 0 2 C0 1.34 0 0.68 0 0 Z " fill="#F8FBF7" transform="translate(164,47)"/>
<path d="M0 0 C4.62 0 9.24 0 14 0 C14 4.95 14 9.9 14 15 C10.04 15 6.08 15 2 15 C-0.49118146 9.32010626 -1.38766322 6.05525768 0 0 Z " fill="#EEEEED" transform="translate(331,315)"/>
<path d="M0 0 C4.95 0 9.9 0 15 0 C15 4.95 15 9.9 15 15 C7.32352941 15.69786096 7.32352941 15.69786096 4.06640625 13.98046875 C1.47064762 11.72085153 0.1586427 10.04908883 -0.36328125 6.59765625 C-0.375 4.125 -0.375 4.125 0 0 Z " fill="#EFEFEE" transform="translate(210,15)"/>
<path d="M0 0 C4.0153707 0.17858894 7.99741832 0.62080805 12 1 C12 5.95 12 10.9 12 16 C8.37 16 4.74 16 1 16 C0.67 16.99 0.34 17.98 0 19 C-1.19825457 15.40523628 -1.14608744 12.11450601 -1.125 8.375 C-1.12886719 7.68148437 -1.13273437 6.98796875 -1.13671875 6.2734375 C-1.12666646 1.12666646 -1.12666646 1.12666646 0 0 Z " fill="#FCFDFC" transform="translate(93,179)"/>
<path d="M0 0 C11.625 1.75 11.625 1.75 15 4 C15.41620943 7.69593971 15.13007474 11.27119087 15 15 C10.05 15 5.1 15 0 15 C0 10.05 0 5.1 0 0 Z " fill="#EEEFED" transform="translate(180,345)"/>
<path d="M0 0 C4.62 0 9.24 0 14 0 C13.34 5.94 12.68 11.88 12 18 C11.67 17.01 11.34 16.02 11 15 C7.37 15 3.74 15 0 15 C0 10.05 0 5.1 0 0 Z " fill="#EEEFED" transform="translate(30,195)"/>
<path d="M0 0 C4.95 0 9.9 0 15 0 C15 4.95 15 9.9 15 15 C13.02 15 11.04 15 9 15 C9 14.01 9 13.02 9 12 C5.04 11.67 1.08 11.34 -3 11 C-2.01 10.34 -1.02 9.68 0 9 C0.36362818 6.79274927 0.36362818 6.79274927 0.1875 4.375 C0.125625 2.93125 0.06375 1.4875 0 0 Z " fill="#EDEEEC" transform="translate(285,60)"/>
<path d="M0 0 C0.33 0.66 0.66 1.32 1 2 C4.96 2 8.92 2 13 2 C13 6.95 13 11.9 13 17 C9.7 17 6.4 17 3 17 C2.67 17.66 2.34 18.32 2 19 C0.26044666 12.56986533 -0.24991456 6.65050424 0 0 Z " fill="#FEFEFE" transform="translate(317,223)"/>
<path d="M0 0 C2.10375 0.28875 4.2075 0.5775 6.375 0.875 C7.55835937 1.03742188 8.74171875 1.19984375 9.9609375 1.3671875 C13 2 13 2 15 4 C15.27450545 7.34896654 15.08628804 10.63476663 15 14 C10.05 14 5.1 14 0 14 C0 9.38 0 4.76 0 0 Z " fill="#EEEFED" transform="translate(105,331)"/>
<path d="M0 0 C-0.33 3.96 -0.66 7.92 -1 12 C-5.95 12 -10.9 12 -16 12 C-15.96744792 9.98177083 -15.93489583 7.96354167 -15.90234375 5.9453125 C-15.87350758 3.91814596 -15.87350758 3.91814596 -17 2 C-14.73139163 1.4695592 -12.46001511 0.95094566 -10.1875 0.4375 C-8.29064453 0.00244141 -8.29064453 0.00244141 -6.35546875 -0.44140625 C-3 -1 -3 -1 0 0 Z " fill="#EDEFEC" transform="translate(256,348)"/>
<path d="M0 0 C2.10375 0.28875 4.2075 0.5775 6.375 0.875 C7.55835938 1.03742188 8.74171875 1.19984375 9.9609375 1.3671875 C13 2 13 2 15 4 C15.27240673 7.01826653 15.08675125 9.96370622 15 13 C10.05 13 5.1 13 0 13 C0 8.71 0 4.42 0 0 Z " fill="#EFEFED" transform="translate(30,317)"/>
<path d="M0 0 C2.9719385 1.12451727 5.33440687 2.22293791 8 4 C7.67 8.95 7.34 13.9 7 19 C3.37 19 -0.26 19 -4 19 C-4.33 19.66 -4.66 20.32 -5 21 C-4.42351925 13.64987044 -2.28953836 6.98575424 0 0 Z " fill="#FCFDFC" transform="translate(83,251)"/>
<path d="M0 0 C1.42600325 4.27800976 -0.54362936 6.86765922 -2.4375 10.6875 C-2.77587891 11.38939453 -3.11425781 12.09128906 -3.46289062 12.81445312 C-4.29981348 14.54723706 -5.14877393 16.27419752 -6 18 C-8.31 17.67 -10.62 17.34 -13 17 C-13 12.05 -13 7.1 -13 2 C-8.71 2 -4.42 2 0 2 C0 1.34 0 0.68 0 0 Z " fill="#FDFDFC" transform="translate(148,43)"/>
<path d="M0 0 C3.63 0 7.26 0 11 0 C11.07822869 5.16309352 11.04225175 9.91902274 10 15 C6.7 15 3.4 15 0 15 C0 10.05 0 5.1 0 0 Z " fill="#FEFEFE" transform="translate(30,210)"/>
<path d="M0 0 C0 4.95 0 9.9 0 15 C-3.63 15 -7.26 15 -11 15 C-11.92508008 10.37459959 -12.13265182 9.33204021 -10.6875 5.25 C-10.42324219 4.47140625 -10.15898438 3.6928125 -9.88671875 2.890625 C-7.85524371 -1.44080196 -4.91817564 0 0 0 Z " fill="#EEEFED" transform="translate(105,165)"/>
<path d="M0 0 C1.31871094 -0.01417969 2.63742188 -0.02835937 3.99609375 -0.04296875 C7.2175867 0.16521097 8.90170999 0.46581234 11.5625 2.1875 C9.2525 2.1875 6.9425 2.1875 4.5625 2.1875 C4.5625 4.8275 4.5625 7.4675 4.5625 10.1875 C-0.3875 10.1875 -5.3375 10.1875 -10.4375 10.1875 C-10.4375 7.2175 -10.4375 4.2475 -10.4375 1.1875 C-6.90252138 0.00917379 -3.67856929 0.00352691 0 0 Z " fill="#F9FBF8" transform="translate(160.4375,124.8125)"/>
<path d="M0 0 C3.63 0 7.26 0 11 0 C11 4.95 11 9.9 11 15 C4 15 4 15 2.140625 13.78125 C0.79955047 11.68696923 0.25303445 9.93403765 -0.25 7.5 C-0.42015625 6.7265625 -0.5903125 5.953125 -0.765625 5.15625 C-1 3 -1 3 0 0 Z " fill="#EFEFEE" transform="translate(94,195)"/>
<path d="M0 0 C3.3 0 6.6 0 10 0 C10 4.95 10 9.9 10 15 C8.72125 14.95875 7.4425 14.9175 6.125 14.875 C3.98128508 14.75787127 3.98128508 14.75787127 2 15 C1.34 15.66 0.68 16.32 0 17 C-0.19644384 15.10507254 -0.38177288 13.20899097 -0.5625 11.3125 C-0.66691406 10.25675781 -0.77132813 9.20101562 -0.87890625 8.11328125 C-0.99277552 5.18573914 -0.70848415 2.82868856 0 0 Z " fill="#EEEEEC" transform="translate(305,135)"/>
<path d="M0 0 C7.75 -0.125 7.75 -0.125 10 1 C10 5.95 10 10.9 10 16 C9.34 15.67 8.68 15.34 8 15 C6.62657169 14.9310528 5.24997898 14.91532292 3.875 14.9375 C1.956875 14.9684375 1.956875 14.9684375 0 15 C0 10.05 0 5.1 0 0 Z " fill="#EDEEEB" transform="translate(165,240)"/>
<path d="M0 0 C4.95 0 9.9 0 15 0 C15.33 2.31 15.66 4.62 16 7 C10.70201036 9.08135307 5.54436129 10.71291613 0 12 C0 8.04 0 4.08 0 0 Z " fill="#FEFEFE" transform="translate(60,90)"/>
<path d="M0 0 C-1.32 0.33 -2.64 0.66 -4 1 C-4 4.3 -4 7.6 -4 11 C-8.95 11 -13.9 11 -19 11 C-19 9.02 -19 7.04 -19 5 C-19.99 4.67 -20.98 4.34 -22 4 C-7.12131367 -0.2094504 -7.12131367 -0.2094504 0 0 Z " fill="#FDFDFC" transform="translate(319,334)"/>
<path d="M0 0 C3.3 0 6.6 0 10 0 C10 4.95 10 9.9 10 15 C8.72125 15.061875 7.4425 15.12375 6.125 15.1875 C5.40570313 15.22230469 4.68640625 15.25710937 3.9453125 15.29296875 C3.30335938 15.19628906 2.66140625 15.09960938 2 15 C-0.07647071 11.88529393 -0.3624111 10.55611254 -0.6875 6.9375 C-0.77386719 6.05964844 -0.86023438 5.18179688 -0.94921875 4.27734375 C-1 2 -1 2 0 0 Z " fill="#EEEEEC" transform="translate(320,240)"/>
<path d="M0 0 C3.63 0 7.26 0 11 0 C10.71937057 2.48088355 10.42609401 4.95909185 10.125 7.4375 C10.00705078 8.49807617 10.00705078 8.49807617 9.88671875 9.58007812 C9.66072324 11.39673432 9.33699273 13.20062522 9 15 C7 16 7 16 0 15 C0 10.05 0 5.1 0 0 Z " fill="#FEFEFE" transform="translate(45,105)"/>
<path d="M0 0 C5.49057578 1.53225371 9.31524195 3.32012388 12.421875 8.26171875 C13.66484934 10.48580486 14.85676708 12.7232638 16 15 C15 16 15 16 12.49609375 16.09765625 C11.48675781 16.08605469 10.47742188 16.07445313 9.4375 16.0625 C8.42558594 16.05347656 7.41367188 16.04445313 6.37109375 16.03515625 C5.19740234 16.01775391 5.19740234 16.01775391 4 16 C3.67 14.35 3.34 12.7 3 11 C2.67 11 2.34 11 2 11 C1.34 7.37 0.68 3.74 0 0 Z " fill="#EEF0ED" transform="translate(194,29)"/>
<path d="M0 0 C3.3 0 6.6 0 10 0 C9.34 4.95 8.68 9.9 8 15 C5.36 15 2.72 15 0 15 C0 10.05 0 5.1 0 0 Z " fill="#EFEFED" transform="translate(30,225)"/>
<path d="M0 0 C0.33 0.66 0.66 1.32 1 2 C3.64 2 6.28 2 9 2 C9 6.95 9 11.9 9 17 C7.02 17 5.04 17 3 17 C2.67 17.99 2.34 18.98 2 20 C0.3879491 13.23514355 -0.26618595 6.95041086 0 0 Z " fill="#FCFDFC" transform="translate(306,148)"/>
<path d="M0 0 C4.95 0 9.9 0 15 0 C15 1.65 15 3.3 15 5 C17.64 5 20.28 5 23 5 C23 5.33 23 5.66 23 6 C21.56720703 6.14695312 21.56720703 6.14695312 20.10546875 6.296875 C12.63911099 7.16038198 6.1446563 8.30312465 -0.828125 11.29296875 C-3 12 -3 12 -6 11 C-4.02 10.34 -2.04 9.68 0 9 C0 6.03 0 3.06 0 0 Z " fill="#FDFEFD" transform="translate(150,0)"/>
<path d="M0 0 C-0.33 0.66 -0.66 1.32 -1 2 C-1 3.98 -1 5.96 -1 8 C-5.95 8 -10.9 8 -16 8 C-16 5.36 -16 2.72 -16 0 C-10.42289352 -1.06795656 -5.60563042 -0.82622671 0 0 Z " fill="#EEEEED" transform="translate(181,127)"/>
<path d="M0 0 C-0.33 2.97 -0.66 5.94 -1 9 C-5.95 9 -10.9 9 -16 9 C-16 7.35 -16 5.7 -16 4 C-16.66 3.67 -17.32 3.34 -18 3 C-11.88595404 1.14256832 -6.41481258 -0.42765417 0 0 Z " fill="#FCFDFC" transform="translate(241,351)"/>
<path d="M0 0 C2.54055845 0.25552438 5.03852505 0.56707159 7.5625 0.9375 C8.27341797 1.03740234 8.98433594 1.13730469 9.71679688 1.24023438 C11.47856957 1.48853791 13.23938152 1.74364039 15 2 C14.67 4.31 14.34 6.62 14 9 C9.05 9 4.1 9 -1 9 C-1.09765625 2.84765625 -1.09765625 2.84765625 -1 1 C-0.67 0.67 -0.34 0.34 0 0 Z " fill="#EDEEEB" transform="translate(211,351)"/>
<path d="M0 0 C0.33 0.66 0.66 1.32 1 2 C3.31 2 5.62 2 8 2 C8.01417969 2.59167969 8.02835938 3.18335938 8.04296875 3.79296875 C8.29431327 7.95713608 8.64597001 10.46895502 11 14 C14.94874986 16.63249991 18.33433828 16.88818676 23 17 C23.04125 18.010625 23.0825 19.02125 23.125 20.0625 C23.76127317 24.85902082 26.69535746 27.67514558 30 31 C26.26077871 29.4186938 23.70350263 27.06769602 20.75 24.3125 C17.4797401 21.27185641 14.18338131 18.29418054 10.75 15.4375 C6.58893428 11.81806061 2.91218861 7.69590413 0 3 C0 2.01 0 1.02 0 0 Z " fill="#FAFBF9" transform="translate(97,208)"/>
<path d="M0 0 C4.95 0 9.9 0 15 0 C15 2.64 15 5.28 15 8 C9.39 7.67 3.78 7.34 -2 7 C-1.34 6.34 -0.68 5.68 0 5 C0 3.35 0 1.7 0 0 Z " fill="#E7EBE4" transform="translate(165,0)"/>
<path d="M0 0 C1.18851563 0.19464844 2.37703125 0.38929688 3.6015625 0.58984375 C4.97441406 0.82380859 4.97441406 0.82380859 6.375 1.0625 C6.375 3.0425 6.375 5.0225 6.375 7.0625 C1.425 7.0625 -3.525 7.0625 -8.625 7.0625 C-8.625 4.7525 -8.625 2.4425 -8.625 0.0625 C-5.61666904 -1.44166548 -3.27538422 -0.54589737 0 0 Z " fill="#EFEFED" transform="translate(143.625,337.9375)"/>
<path d="M0 0 C2.475 0.495 2.475 0.495 5 1 C5.05794812 5.27077656 5.09357874 9.54145236 5.125 13.8125 C5.14175781 15.02744141 5.15851563 16.24238281 5.17578125 17.49414062 C5.18222656 18.65751953 5.18867188 19.82089844 5.1953125 21.01953125 C5.20578613 22.09307861 5.21625977 23.16662598 5.22705078 24.27270508 C5 27 5 27 3 30 C2.48916442 26.68907899 1.99336786 23.37606521 1.5 20.0625 C1.35691406 19.13630859 1.21382813 18.21011719 1.06640625 17.25585938 C0.20832487 11.43316429 -0.14486785 5.88525633 0 0 Z " fill="#FBFCFA" transform="translate(295,74)"/>
<path d="M0 0 C4.95 0 9.9 0 15 0 C15 4.62 15 9.24 15 14 C14.34 13.319375 13.68 12.63875 13 11.9375 C10.05702011 8.9860875 6.92476605 6.27164339 3.76953125 3.55078125 C2.47133312 2.41306678 1.2205967 1.2205967 0 0 Z " fill="#EFEFEE" transform="translate(240,45)"/>
<path d="M0 0 C0.66 0.33 1.32 0.66 2 1 C1.67 4.96 1.34 8.92 1 13 C-3.29 13 -7.58 13 -12 13 C-11.0925 11.948125 -10.185 10.89625 -9.25 9.8125 C-7.36073639 7.61578548 -5.53678008 5.40810787 -3.75 3.125 C-2 1 -2 1 0 0 Z " fill="#FEFEFE" transform="translate(119,137)"/>
<path d="M0 0 C1.28132813 0.19464844 2.56265625 0.38929688 3.8828125 0.58984375 C4.87023437 0.74582031 5.85765625 0.90179688 6.875 1.0625 C6.545 2.7125 6.215 4.3625 5.875 6.0625 C0.925 6.0625 -4.025 6.0625 -9.125 6.0625 C-9.125 4.0825 -9.125 2.1025 -9.125 0.0625 C-6.01752306 -1.49123847 -3.38273473 -0.52278628 0 0 Z " fill="#EFEFED" transform="translate(69.125,323.9375)"/>
<path d="M0 0 C2.31 0 4.62 0 7 0 C7 4.95 7 9.9 7 15 C5.35 15.33 3.7 15.66 2 16 C1.34 10.72 0.68 5.44 0 0 Z " fill="#EEEFEC" transform="translate(323,270)"/>
<path d="M0 0 C1.98 0 3.96 0 6 0 C6 4.95 6 9.9 6 15 C3.03 14.505 3.03 14.505 0 14 C-0.19532961 12.2300132 -0.38098882 10.45895721 -0.5625 8.6875 C-0.66691406 7.70136719 -0.77132813 6.71523437 -0.87890625 5.69921875 C-1 3 -1 3 0 0 Z " fill="#EDEEEB" transform="translate(309,165)"/>
<path d="M0 0 C-0.11426509 2.41760876 -0.24099661 4.83347218 -0.375 7.25 C-0.4059375 7.93191406 -0.436875 8.61382812 -0.46875 9.31640625 C-0.68259374 12.98739038 -1.01077055 15.86251616 -3 19 C-3 18.01 -3 17.02 -3 16 C-3.99 16 -4.98 16 -6 16 C-6 11.05 -6 6.1 -6 1 C-1 0 -1 0 0 0 Z " fill="#FEFEFE" transform="translate(51,134)"/>
<path d="M0 0 C2.64 0 5.28 0 8 0 C8 4.95 8 9.9 8 15 C6.68 15 5.36 15 4 15 C3.52029877 13.25014646 3.04126076 11.50011109 2.5625 9.75 C2.29566406 8.77546875 2.02882812 7.8009375 1.75390625 6.796875 C1.14455416 4.53627347 0.55761745 2.27377991 0 0 Z " fill="#FDFDFD" transform="translate(127,240)"/>
<path d="M0 0 C4.29 0 8.58 0 13 0 C13 2.64 13 5.28 13 8 C10.4375 8.4375 10.4375 8.4375 7 8 C4.35250006 5.9390719 2.11133474 3.60481239 0 1 C0 0.67 0 0.34 0 0 Z " fill="#EFEFEE" transform="translate(257,60)"/>
<path d="M0 0 C5.00890086 0.61512818 10.00632136 1.2717552 15 2 C15 3.32 15 4.64 15 6 C10.05 6 5.1 6 0 6 C0 4.02 0 2.04 0 0 Z " fill="#FDFDFC" transform="translate(105,264)"/>
<path d="M0 0 C1.98 0 3.96 0 6 0 C5.67 3.96 5.34 7.92 5 12 C4.34 12 3.68 12 3 12 C3 12.99 3 13.98 3 15 C2.01 15 1.02 15 0 15 C0 10.05 0 5.1 0 0 Z " fill="#EEEFED" transform="translate(30,255)"/>
<path d="M0 0 C1.47193312 2.94386623 0.84936173 5.37390036 0.5625 8.625 C0.46066406 9.81351563 0.35882813 11.00203125 0.25390625 12.2265625 C0.17011719 13.14179688 0.08632812 14.05703125 0 15 C-2.64 15.33 -5.28 15.66 -8 16 C-7.42070126 11.97387377 -6.14350034 9.19196689 -4 5.75 C-3.46375 4.87859375 -2.9275 4.0071875 -2.375 3.109375 C-1 1 -1 1 0 0 Z " fill="#FCFDFC" transform="translate(105,150)"/>
<path d="M0 0 C3.3 0 6.6 0 10 0 C10 0.99 10 1.98 10 3 C8.06640625 4.82421875 8.06640625 4.82421875 5.5625 6.6875 C4.73878906 7.31011719 3.91507813 7.93273437 3.06640625 8.57421875 C1 10 1 10 0 10 C0 6.7 0 3.4 0 0 Z " fill="#F0F0EE" transform="translate(150,285)"/>
<path d="M0 0 C0.33 0 0.66 0 1 0 C1 4.29 1 8.58 1 13 C-1.31 13 -3.62 13 -6 13 C-7 10 -7 10 -6.22265625 7.95703125 C-5.83980469 7.24933594 -5.45695313 6.54164062 -5.0625 5.8125 C-4.68222656 5.09707031 -4.30195313 4.38164063 -3.91015625 3.64453125 C-3.60980469 3.10183594 -3.30945313 2.55914062 -3 2 C-2.01 2 -1.02 2 0 2 C0 1.34 0 0.68 0 0 Z " fill="#EFF0EE" transform="translate(164,47)"/>
<path d="M0 0 C1.32 0.33 2.64 0.66 4 1 C4 7.6 4 14.2 4 21 C3.34 21.33 2.68 21.66 2 22 C0.57374434 14.58856436 -0.30071865 7.55137932 0 0 Z " fill="#F7F9F6" transform="translate(326,284)"/>
<path d="M0 0 C0.33 0 0.66 0 1 0 C0.67 5.94 0.34 11.88 0 18 C-1.32 18 -2.64 18 -4 18 C-4 13.05 -4 8.1 -4 3 C-3.01 3 -2.02 3 -1 3 C-0.67 2.01 -0.34 1.02 0 0 Z " fill="#EBEDE9" transform="translate(184,42)"/>
<path d="M0 0 C2.97 0 5.94 0 9 0 C7.44691894 3.10616212 5.99825692 5.51582621 3.9375 8.25 C3.41027344 8.95640625 2.88304687 9.6628125 2.33984375 10.390625 C1.89769531 10.92171875 1.45554688 11.4528125 1 12 C0.67 12 0.34 12 0 12 C0 8.04 0 4.08 0 0 Z " fill="#FBFCFB" transform="translate(150,30)"/>
<path d="M0 0 C3.94727588 -0.17942163 6.5980513 -0.09350689 10 2 C9.34 3.98 8.68 5.96 8 8 C5.69 7.67 3.38 7.34 1 7 C0.67 4.69 0.34 2.38 0 0 Z " fill="#FAFBF9" transform="translate(179,128)"/>
<path d="M0 0 C0.66 0 1.32 0 2 0 C4.24828052 4.49656104 4.16682272 8.07872966 4 13 C2.68 12.67 1.36 12.34 0 12 C0 8.04 0 4.08 0 0 Z " fill="#FBFCFB" transform="translate(180,33)"/>
<path d="M0 0 C0.33 0 0.66 0 1 0 C1.84634488 5.07806929 2.17765417 9.84802914 2 15 C1 16 1 16 -1.5625 16.0625 C-2.366875 16.041875 -3.17125 16.02125 -4 16 C-4 14.68 -4 13.36 -4 12 C-2.68 12 -1.36 12 0 12 C0 8.04 0 4.08 0 0 Z " fill="#F6F8F4" transform="translate(184,48)"/>
<path d="M0 0 C2.97 0 5.94 0 9 0 C9.33 2.31 9.66 4.62 10 7 C5.56541027 5.6062718 3.12621626 3.39417765 0 0 Z " fill="#FCFDFC" transform="translate(81,285)"/>
<path d="M0 0 C-0.99 0.495 -0.99 0.495 -2 1 C-2 1.99 -2 2.98 -2 4 C-5.63 4 -9.26 4 -13 4 C-12.67 3.01 -12.34 2.02 -12 1 C-7.9472484 0.01751476 -4.16138263 -0.08159574 0 0 Z " fill="#F5F9F3" transform="translate(287,341)"/>
<path d="M0 0 C-0.639375 0.226875 -1.27875 0.45375 -1.9375 0.6875 C-4.27193661 1.85250896 -4.27193661 1.85250896 -4.75 4.625 C-4.8325 5.40875 -4.915 6.1925 -5 7 C-7.64 7 -10.28 7 -13 7 C-4.84931507 -1.61643836 -4.84931507 -1.61643836 0 0 Z " fill="#FBFCFA" transform="translate(155,23)"/>
<path d="M0 0 C0.33 0 0.66 0 1 0 C0.25 6.625 0.25 6.625 -2 10 C-6.95 8.02 -6.95 8.02 -12 6 C-12 5.67 -12 5.34 -12 5 C-8.37 5 -4.74 5 -1 5 C-0.67 3.35 -0.34 1.7 0 0 Z " fill="#F8FAF7" transform="translate(177,160)"/>
<path d="M0 0 C0.99 0 1.98 0 3 0 C2.34034961 6.86036401 0.7637236 13.34443923 -1 20 C-2.25180279 15.78080897 -1.67252421 12.03911435 -1.0625 7.75 C-0.96259766 7.00492187 -0.86269531 6.25984375 -0.75976562 5.4921875 C-0.51319844 3.66054558 -0.25749609 1.83013749 0 0 Z " fill="#9EC883" transform="translate(32,281)"/>
<path d="M0 0 C2 2 2 2 2.1953125 4.1640625 C2.17210938 4.97617188 2.14890625 5.78828125 2.125 6.625 C2.10695313 7.44226563 2.08890625 8.25953125 2.0703125 9.1015625 C2.03550781 10.04128906 2.03550781 10.04128906 2 11 C0.68 11 -0.64 11 -2 11 C-3.13643966 7.59068103 -2.86747764 6.99664544 -1.5625 3.8125 C-1.13130859 2.73935547 -1.13130859 2.73935547 -0.69140625 1.64453125 C-0.46324219 1.10183594 -0.23507813 0.55914062 0 0 Z " fill="#ECEFEA" transform="translate(118,64)"/>
<path d="M0 0 C3.3 0 6.6 0 10 0 C10 0.99 10 1.98 10 3 C5.77777778 6 5.77777778 6 3 6 C3 4.35 3 2.7 3 1 C2.01 0.67 1.02 0.34 0 0 Z " fill="#F9FBF8" transform="translate(162,19)"/>
<path d="M0 0 C-0.33 1.32 -0.66 2.64 -1 4 C-3.97 4 -6.94 4 -10 4 C-9 1 -9 1 -6.6875 -0.25 C-3.90126985 -1.0275526 -2.66561622 -0.98726527 0 0 Z " fill="#FDFDFC" transform="translate(136,131)"/>
<path d="M0 0 C0 0.99 0 1.98 0 3 C-0.33 3.33 -0.66 3.66 -1 4 C-1.36760731 6.32817964 -1.70241581 8.6618385 -2 11 C-3.98 11 -5.96 11 -8 11 C-5.69281189 6.71522208 -3.67033927 3.27708863 0 0 Z " fill="#FAFBF9" transform="translate(137,34)"/>
<path d="M0 0 C1.32 0 2.64 0 4 0 C5 3 5 3 3.5625 6.1875 C2.7890625 7.5796875 2.7890625 7.5796875 2 9 C1.34 9 0.68 9 0 9 C0 6.03 0 3.06 0 0 Z " fill="#F0F0EF" transform="translate(165,270)"/>
<path d="M0 0 C0.66 0 1.32 0 2 0 C2.05410687 1.77049689 2.09284119 3.54146849 2.125 5.3125 C2.14820313 6.29863281 2.17140625 7.28476563 2.1953125 8.30078125 C2 11 2 11 0 14 C-0.19532961 12.2300132 -0.38098882 10.45895721 -0.5625 8.6875 C-0.66691406 7.70136719 -0.77132813 6.71523437 -0.87890625 5.69921875 C-1 3 -1 3 0 0 Z " fill="#ECEFE9" transform="translate(298,90)"/>
<path d="M0 0 C0.99 0 1.98 0 3 0 C3 2.64 3 5.28 3 8 C2.01 8.495 2.01 8.495 1 9 C0.67 6.03 0.34 3.06 0 0 Z " fill="#EBEFE8" transform="translate(312,195)"/>
<path d="M0 0 C2.5654594 2.5654594 2.54046087 4.47686668 3 8 C1.68 7.67 0.36 7.34 -1 7 C-1.04254356 5.00045254 -1.04080783 2.99958364 -1 1 C-0.67 0.67 -0.34 0.34 0 0 Z " fill="#E6ECE1" transform="translate(211,47)"/>
<path d="M0 0 C1.98 0.99 3.96 1.98 6 3 C6 3.66 6 4.32 6 5 C4.02 5 2.04 5 0 5 C0 3.35 0 1.7 0 0 Z " fill="#EFEFEE" transform="translate(150,205)"/>
<path d="M0 0 C0 3 0 3 -2.5 5.6875 C-3.325 6.450625 -4.15 7.21375 -5 8 C-5.3125 5.6875 -5.3125 5.6875 -5 3 C-2.5 1.1875 -2.5 1.1875 0 0 Z " fill="#FAFBFA" transform="translate(125,27)"/>
</svg>
